G75*
%MOIN*%
%OFA0B0*%
%FSLAX24Y24*%
%IPPOS*%
%LPD*%
%AMOC8*
5,1,8,0,0,1.08239X$1,22.5*
%
%ADD10R,0.0394X0.0236*%
%ADD11C,0.0900*%
%ADD12C,0.0495*%
%ADD13R,0.0157X0.0531*%
%ADD14R,0.0394X0.1811*%
%ADD15R,0.0630X0.1339*%
%ADD16R,0.0571X0.0453*%
%ADD17R,0.0394X0.0098*%
%ADD18R,0.0283X0.0232*%
%ADD19R,0.0232X0.0283*%
%ADD20R,0.0315X0.0315*%
%ADD21R,0.0787X0.0433*%
%ADD22R,0.0374X0.0394*%
%ADD23R,0.0394X0.0374*%
%ADD24R,0.0740X0.0740*%
%ADD25C,0.0740*%
%ADD26C,0.0060*%
%ADD27C,0.0270*%
%ADD28C,0.0080*%
D10*
X003697Y009581D03*
X003697Y010329D03*
X004563Y009955D03*
D11*
X005048Y013055D03*
X007812Y013055D03*
D12*
X007385Y011874D03*
X005475Y011874D03*
D13*
X005918Y012002D03*
X006174Y012002D03*
X006430Y012002D03*
X006686Y012002D03*
X006942Y012002D03*
D14*
X002424Y010898D03*
X001636Y010898D03*
D15*
X000691Y012945D03*
X003369Y012945D03*
D16*
X007230Y011009D03*
X007230Y010301D03*
D17*
X006462Y010461D03*
X006462Y010658D03*
X006462Y010855D03*
X006462Y011052D03*
X006462Y011249D03*
X004798Y011249D03*
X004798Y011052D03*
X004798Y010855D03*
X004798Y010658D03*
X004798Y010461D03*
D18*
X004030Y010966D03*
X004030Y011344D03*
X004030Y012466D03*
X004030Y012844D03*
X001630Y009144D03*
X001630Y008766D03*
D19*
X001119Y005755D03*
X000741Y005755D03*
X000741Y004155D03*
X001119Y004155D03*
X006741Y006255D03*
X007119Y006255D03*
X007219Y008955D03*
X006841Y008955D03*
X006841Y009555D03*
X007219Y009555D03*
D20*
X002530Y009670D03*
X002530Y009040D03*
D21*
X002443Y008324D03*
X002443Y007655D03*
X002443Y006986D03*
X002443Y005524D03*
X002443Y004855D03*
X002443Y004186D03*
X004017Y004186D03*
X004017Y004855D03*
X004017Y005524D03*
X004017Y006986D03*
X004017Y007655D03*
X004017Y008324D03*
X005243Y008324D03*
X005243Y007655D03*
X005243Y006986D03*
X005243Y005524D03*
X005243Y004855D03*
X005243Y004186D03*
X006817Y004186D03*
X006817Y004855D03*
X006817Y005524D03*
X006817Y006986D03*
X006817Y007655D03*
X006817Y008324D03*
D22*
X005845Y009855D03*
X005215Y009855D03*
D23*
X003130Y009770D03*
X003130Y009140D03*
D24*
X007930Y007155D03*
D25*
X007930Y006155D03*
X007930Y005155D03*
X007930Y004155D03*
D26*
X000310Y003877D02*
X000310Y003535D01*
X003542Y003535D01*
X003521Y003566D01*
X003490Y003597D01*
X003490Y003612D01*
X003321Y003866D01*
X003290Y003897D01*
X003290Y003912D01*
X003281Y003925D01*
X003290Y003969D01*
X003290Y004445D01*
X003283Y004492D01*
X003290Y004502D01*
X003290Y004513D01*
X003324Y004547D01*
X003524Y004813D01*
X003524Y005113D01*
X003582Y005171D01*
X004453Y005171D01*
X004490Y005134D01*
X004490Y005245D01*
X004453Y005208D01*
X003582Y005208D01*
X003532Y005258D01*
X003370Y005097D01*
X003370Y005047D01*
X003465Y004952D01*
X003465Y004758D01*
X003327Y004620D01*
X003133Y004620D01*
X003038Y004715D01*
X002936Y004715D01*
X002936Y004597D01*
X002878Y004538D01*
X002007Y004538D01*
X001949Y004597D01*
X001949Y005113D01*
X002007Y005171D01*
X002878Y005171D01*
X002936Y005113D01*
X002936Y004995D01*
X003038Y004995D01*
X003090Y005047D01*
X003090Y005213D01*
X003172Y005295D01*
X003524Y005647D01*
X003524Y005782D01*
X003582Y005841D01*
X004346Y005841D01*
X003772Y006415D01*
X003472Y006415D01*
X003390Y006497D01*
X003190Y006697D01*
X003190Y007313D01*
X003272Y007395D01*
X003297Y007420D01*
X003133Y007420D01*
X003038Y007515D01*
X002936Y007515D01*
X002936Y007397D01*
X002878Y007338D01*
X002007Y007338D01*
X001949Y007397D01*
X001949Y007913D01*
X002007Y007971D01*
X002878Y007971D01*
X002936Y007913D01*
X002936Y007795D01*
X003038Y007795D01*
X003090Y007847D01*
X003090Y008113D01*
X003441Y008464D01*
X003524Y008464D01*
X003524Y008582D01*
X003556Y008615D01*
X002904Y008615D01*
X002936Y008582D01*
X002936Y008066D01*
X002878Y008008D01*
X002007Y008008D01*
X001949Y008066D01*
X001949Y008520D01*
X001933Y008520D01*
X001858Y008595D01*
X001813Y008550D01*
X001447Y008550D01*
X001388Y008608D01*
X001388Y008923D01*
X001420Y008955D01*
X001388Y008986D01*
X001388Y009215D01*
X001370Y009197D01*
X001370Y006297D01*
X001288Y006215D01*
X001088Y006015D01*
X000988Y006015D01*
X000970Y005997D01*
X001277Y005997D01*
X001335Y005938D01*
X001335Y005895D01*
X001338Y005895D01*
X001433Y005990D01*
X001627Y005990D01*
X001765Y005852D01*
X001765Y005658D01*
X001627Y005520D01*
X001433Y005520D01*
X001338Y005615D01*
X001335Y005615D01*
X001335Y005572D01*
X001277Y005513D01*
X000961Y005513D01*
X000930Y005545D01*
X000899Y005513D01*
X000881Y005513D01*
X000881Y004397D01*
X000899Y004397D01*
X000930Y004365D01*
X000961Y004397D01*
X001277Y004397D01*
X001335Y004338D01*
X001335Y004295D01*
X001338Y004295D01*
X001433Y004390D01*
X001627Y004390D01*
X001765Y004252D01*
X001765Y004058D01*
X001627Y003920D01*
X001433Y003920D01*
X001338Y004015D01*
X001335Y004015D01*
X001335Y003972D01*
X001277Y003913D01*
X001270Y003913D01*
X001270Y003897D01*
X001188Y003815D01*
X001088Y003715D01*
X000472Y003715D01*
X000390Y003797D01*
X000310Y003877D01*
X000310Y003823D02*
X000364Y003823D01*
X000310Y003764D02*
X000423Y003764D01*
X000310Y003706D02*
X003428Y003706D01*
X003467Y003647D02*
X000310Y003647D01*
X000310Y003589D02*
X003498Y003589D01*
X003389Y003764D02*
X001137Y003764D01*
X001196Y003823D02*
X003350Y003823D01*
X003306Y003881D02*
X002932Y003881D01*
X002940Y003889D02*
X002957Y003919D01*
X002966Y003952D01*
X002966Y004156D01*
X002473Y004156D01*
X002473Y004216D01*
X002413Y004216D01*
X002413Y004532D01*
X002032Y004532D01*
X001999Y004523D01*
X001969Y004506D01*
X001945Y004482D01*
X001928Y004452D01*
X001919Y004419D01*
X001919Y004216D01*
X002413Y004216D01*
X002413Y004156D01*
X002473Y004156D01*
X002473Y003839D01*
X002853Y003839D01*
X002886Y003848D01*
X002916Y003865D01*
X002940Y003889D01*
X002963Y003940D02*
X003284Y003940D01*
X003290Y003998D02*
X002966Y003998D01*
X002966Y004057D02*
X003290Y004057D01*
X003290Y004115D02*
X002966Y004115D01*
X002966Y004216D02*
X002966Y004419D01*
X002957Y004452D01*
X002940Y004482D01*
X002916Y004506D01*
X002886Y004523D01*
X002853Y004532D01*
X002473Y004532D01*
X002473Y004216D01*
X002966Y004216D01*
X002966Y004232D02*
X003290Y004232D01*
X003290Y004174D02*
X002473Y004174D01*
X002473Y004232D02*
X002413Y004232D01*
X002413Y004174D02*
X001765Y004174D01*
X001765Y004232D02*
X001919Y004232D01*
X001919Y004291D02*
X001726Y004291D01*
X001668Y004349D02*
X001919Y004349D01*
X001919Y004408D02*
X000881Y004408D01*
X000881Y004466D02*
X001936Y004466D01*
X002005Y004525D02*
X000881Y004525D01*
X000881Y004583D02*
X001962Y004583D01*
X001949Y004642D02*
X000881Y004642D01*
X000881Y004700D02*
X001949Y004700D01*
X001949Y004759D02*
X000881Y004759D01*
X000881Y004817D02*
X001949Y004817D01*
X001949Y004876D02*
X000881Y004876D01*
X000881Y004934D02*
X001949Y004934D01*
X001949Y004993D02*
X000881Y004993D01*
X000881Y005051D02*
X001949Y005051D01*
X001949Y005110D02*
X000881Y005110D01*
X000881Y005168D02*
X002004Y005168D01*
X002007Y005208D02*
X002878Y005208D01*
X002936Y005266D01*
X002936Y005782D01*
X002878Y005841D01*
X002007Y005841D01*
X001949Y005782D01*
X001949Y005266D01*
X002007Y005208D01*
X001988Y005227D02*
X000881Y005227D01*
X000881Y005285D02*
X001949Y005285D01*
X001949Y005344D02*
X000881Y005344D01*
X000881Y005402D02*
X001949Y005402D01*
X001949Y005461D02*
X000881Y005461D01*
X000905Y005519D02*
X000955Y005519D01*
X001283Y005519D02*
X001949Y005519D01*
X001949Y005578D02*
X001685Y005578D01*
X001744Y005636D02*
X001949Y005636D01*
X001949Y005695D02*
X001765Y005695D01*
X001765Y005753D02*
X001949Y005753D01*
X001979Y005812D02*
X001765Y005812D01*
X001747Y005870D02*
X004316Y005870D01*
X004258Y005929D02*
X001688Y005929D01*
X001630Y005987D02*
X004199Y005987D01*
X004141Y006046D02*
X001119Y006046D01*
X001178Y006104D02*
X004082Y006104D01*
X004024Y006163D02*
X001236Y006163D01*
X001295Y006221D02*
X003965Y006221D01*
X003907Y006280D02*
X001353Y006280D01*
X001370Y006338D02*
X003848Y006338D01*
X003790Y006397D02*
X001370Y006397D01*
X001370Y006455D02*
X003431Y006455D01*
X003373Y006514D02*
X001370Y006514D01*
X001370Y006572D02*
X003314Y006572D01*
X003256Y006631D02*
X001370Y006631D01*
X001370Y006689D02*
X001945Y006689D01*
X001969Y006665D01*
X001999Y006648D01*
X002032Y006639D01*
X002413Y006639D01*
X002413Y006956D01*
X002473Y006956D01*
X002473Y007016D01*
X002413Y007016D01*
X002413Y007332D01*
X002032Y007332D01*
X001999Y007323D01*
X001969Y007306D01*
X001945Y007282D01*
X001928Y007252D01*
X001919Y007219D01*
X001919Y007016D01*
X002413Y007016D01*
X002413Y006956D01*
X001919Y006956D01*
X001919Y006752D01*
X001928Y006719D01*
X001945Y006689D01*
X001920Y006748D02*
X001370Y006748D01*
X001370Y006806D02*
X001919Y006806D01*
X001919Y006865D02*
X001370Y006865D01*
X001370Y006923D02*
X001919Y006923D01*
X001919Y007040D02*
X001370Y007040D01*
X001370Y006982D02*
X002413Y006982D01*
X002413Y007040D02*
X002473Y007040D01*
X002473Y007016D02*
X002473Y007332D01*
X002853Y007332D01*
X002886Y007323D01*
X002916Y007306D01*
X002940Y007282D01*
X002957Y007252D01*
X002966Y007219D01*
X002966Y007016D01*
X002473Y007016D01*
X002473Y006982D02*
X003190Y006982D01*
X003190Y007040D02*
X002966Y007040D01*
X002966Y007099D02*
X003190Y007099D01*
X003190Y007157D02*
X002966Y007157D01*
X002966Y007216D02*
X003190Y007216D01*
X003190Y007274D02*
X002945Y007274D01*
X002931Y007391D02*
X003269Y007391D01*
X003210Y007333D02*
X001370Y007333D01*
X001370Y007391D02*
X001954Y007391D01*
X001949Y007450D02*
X001370Y007450D01*
X001370Y007508D02*
X001949Y007508D01*
X001949Y007567D02*
X001370Y007567D01*
X001370Y007625D02*
X001949Y007625D01*
X001949Y007684D02*
X001370Y007684D01*
X001370Y007742D02*
X001949Y007742D01*
X001949Y007801D02*
X001370Y007801D01*
X001370Y007859D02*
X001949Y007859D01*
X001954Y007918D02*
X001370Y007918D01*
X001370Y007976D02*
X003090Y007976D01*
X003090Y007918D02*
X002931Y007918D01*
X002936Y007859D02*
X003090Y007859D01*
X003044Y007801D02*
X002936Y007801D01*
X002905Y008035D02*
X003090Y008035D01*
X003090Y008093D02*
X002936Y008093D01*
X002936Y008152D02*
X003129Y008152D01*
X003188Y008210D02*
X002936Y008210D01*
X002936Y008269D02*
X003246Y008269D01*
X003305Y008327D02*
X002936Y008327D01*
X002936Y008386D02*
X003363Y008386D01*
X003422Y008444D02*
X002936Y008444D01*
X002936Y008503D02*
X003524Y008503D01*
X003524Y008561D02*
X002936Y008561D01*
X003408Y008035D02*
X003555Y008035D01*
X003582Y008008D02*
X004453Y008008D01*
X004511Y008066D01*
X004511Y008582D01*
X004478Y008615D01*
X004782Y008615D01*
X004749Y008582D01*
X004749Y008066D01*
X004807Y008008D01*
X005678Y008008D01*
X005736Y008066D01*
X005736Y008451D01*
X005865Y008322D01*
X005795Y008252D01*
X005795Y008058D01*
X005933Y007920D01*
X006127Y007920D01*
X006265Y008058D01*
X006265Y008252D01*
X006170Y008347D01*
X006170Y008413D01*
X005770Y008813D01*
X005768Y008815D01*
X006625Y008815D01*
X006625Y008772D01*
X006683Y008713D01*
X006999Y008713D01*
X007030Y008745D01*
X007061Y008713D01*
X007377Y008713D01*
X007395Y008732D01*
X007395Y008658D01*
X007533Y008520D01*
X007727Y008520D01*
X007865Y008658D01*
X007865Y008852D01*
X007727Y008990D01*
X007593Y008990D01*
X007488Y009095D01*
X007435Y009095D01*
X007435Y009138D01*
X007377Y009197D01*
X007061Y009197D01*
X007030Y009165D01*
X006999Y009197D01*
X006683Y009197D01*
X006625Y009138D01*
X006625Y009095D01*
X005004Y009095D01*
X004644Y009624D01*
X004644Y009639D01*
X004612Y009671D01*
X004587Y009708D01*
X004573Y009710D01*
X004562Y009721D01*
X004517Y009721D01*
X004473Y009729D01*
X004461Y009721D01*
X003994Y009721D01*
X003994Y009740D01*
X003935Y009799D01*
X003459Y009799D01*
X003400Y009740D01*
X003160Y009740D01*
X003160Y009800D01*
X003100Y009800D01*
X003100Y010087D01*
X002916Y010087D01*
X002883Y010078D01*
X002853Y010061D01*
X002829Y010037D01*
X002812Y010007D01*
X002803Y009974D01*
X002803Y009800D01*
X003100Y009800D01*
X003100Y009740D01*
X002803Y009740D01*
X002803Y009605D01*
X002787Y009619D01*
X002787Y009869D01*
X002729Y009927D01*
X002697Y009927D01*
X002721Y009951D01*
X002721Y010518D01*
X003391Y010518D01*
X003379Y010497D01*
X003370Y010464D01*
X003370Y010358D01*
X003668Y010358D01*
X003668Y010300D01*
X003370Y010300D01*
X003370Y010194D01*
X003379Y010161D01*
X003396Y010131D01*
X003420Y010107D01*
X003450Y010090D01*
X003483Y010081D01*
X003668Y010081D01*
X003668Y010300D01*
X003726Y010300D01*
X003726Y010358D01*
X004024Y010358D01*
X004024Y010464D01*
X004015Y010497D01*
X004003Y010518D01*
X004501Y010518D01*
X004501Y010371D01*
X004560Y010312D01*
X004658Y010312D01*
X004658Y010173D01*
X004325Y010173D01*
X004266Y010114D01*
X004266Y009795D01*
X004325Y009737D01*
X004801Y009737D01*
X004860Y009795D01*
X004860Y009802D01*
X004928Y009785D01*
X004928Y009617D01*
X004987Y009558D01*
X004990Y009558D01*
X004990Y009547D01*
X004895Y009452D01*
X004895Y009258D01*
X005033Y009120D01*
X005227Y009120D01*
X005365Y009258D01*
X005365Y009452D01*
X005270Y009547D01*
X005270Y009558D01*
X005443Y009558D01*
X005502Y009617D01*
X005502Y010093D01*
X005443Y010152D01*
X004987Y010152D01*
X004938Y010103D01*
X004938Y010312D01*
X005036Y010312D01*
X005095Y010371D01*
X005095Y010552D01*
X005087Y010560D01*
X005095Y010567D01*
X005095Y010749D01*
X005087Y010756D01*
X005095Y010764D01*
X005095Y010946D01*
X005087Y010953D01*
X005095Y010961D01*
X005095Y011142D01*
X005087Y011150D01*
X005095Y011158D01*
X005095Y011339D01*
X005036Y011398D01*
X004785Y011398D01*
X004488Y011695D01*
X004338Y011845D01*
X004170Y012013D01*
X005124Y012013D01*
X005112Y011984D02*
X005098Y011911D01*
X005098Y011904D01*
X005445Y011904D01*
X005445Y011844D01*
X005098Y011844D01*
X005098Y011837D01*
X005112Y011764D01*
X005141Y011695D01*
X005182Y011633D01*
X005235Y011581D01*
X005296Y011539D01*
X005365Y011511D01*
X005438Y011496D01*
X005445Y011496D01*
X005445Y011844D01*
X005505Y011844D01*
X005505Y011496D01*
X005512Y011496D01*
X005585Y011511D01*
X005654Y011539D01*
X005716Y011581D01*
X005765Y011629D01*
X005789Y011615D01*
X005822Y011606D01*
X005909Y011606D01*
X005909Y011992D01*
X005928Y011992D01*
X005928Y011606D01*
X006014Y011606D01*
X006047Y011615D01*
X006077Y011632D01*
X006081Y011636D01*
X006294Y011636D01*
X006302Y011644D01*
X006310Y011636D01*
X006550Y011636D01*
X006558Y011644D01*
X006566Y011636D01*
X006802Y011636D01*
X006802Y011324D01*
X006800Y011269D01*
X006802Y011266D01*
X006802Y011263D01*
X006841Y011224D01*
X006845Y011220D01*
X006845Y010798D01*
X006759Y010798D01*
X006759Y010946D01*
X006751Y010953D01*
X006759Y010961D01*
X006759Y011116D01*
X006763Y011120D01*
X006780Y011149D01*
X006789Y011182D01*
X006789Y011249D01*
X006789Y011315D01*
X006780Y011348D01*
X006763Y011378D01*
X006739Y011402D01*
X006709Y011419D01*
X006676Y011428D01*
X006462Y011428D01*
X006462Y011249D01*
X006462Y011249D01*
X006462Y011428D01*
X006248Y011428D01*
X006215Y011419D01*
X006185Y011402D01*
X006161Y011378D01*
X006144Y011348D01*
X006135Y011315D01*
X006135Y011249D01*
X006462Y011249D01*
X006789Y011249D01*
X006462Y011249D01*
X006462Y011249D01*
X006462Y011249D01*
X006135Y011249D01*
X006135Y011182D01*
X006144Y011149D01*
X006161Y011120D01*
X006165Y011116D01*
X006165Y010961D01*
X006173Y010953D01*
X006165Y010946D01*
X006165Y010764D01*
X006173Y010756D01*
X006165Y010749D01*
X006165Y010567D01*
X006173Y010560D01*
X006165Y010552D01*
X006165Y010371D01*
X006224Y010312D01*
X006700Y010312D01*
X006759Y010371D01*
X006759Y010518D01*
X006815Y010518D01*
X006815Y010331D01*
X007200Y010331D01*
X007200Y010657D01*
X007150Y010657D01*
X007169Y010683D01*
X007557Y010683D01*
X007615Y010741D01*
X007615Y010915D01*
X007772Y010915D01*
X008090Y010597D01*
X008090Y008013D01*
X008072Y007995D01*
X007572Y007995D01*
X007490Y007913D01*
X007311Y007734D01*
X007311Y007913D01*
X007253Y007971D01*
X006382Y007971D01*
X006324Y007913D01*
X006324Y007795D01*
X006222Y007795D01*
X006127Y007890D01*
X005933Y007890D01*
X005795Y007752D01*
X005795Y007558D01*
X005890Y007463D01*
X005890Y007413D01*
X005728Y007251D01*
X005678Y007302D01*
X004807Y007302D01*
X004770Y007265D01*
X004770Y007376D01*
X004807Y007338D01*
X005678Y007338D01*
X005736Y007397D01*
X005736Y007913D01*
X005678Y007971D01*
X004807Y007971D01*
X004749Y007913D01*
X004749Y007772D01*
X004690Y007713D01*
X004511Y007534D01*
X004511Y007913D01*
X004453Y007971D01*
X003582Y007971D01*
X003524Y007913D01*
X003524Y007647D01*
X003465Y007588D01*
X003465Y007752D01*
X003370Y007847D01*
X003370Y007997D01*
X003524Y008151D01*
X003524Y008066D01*
X003582Y008008D01*
X003524Y008093D02*
X003467Y008093D01*
X003370Y007976D02*
X005876Y007976D01*
X005818Y008035D02*
X005705Y008035D01*
X005736Y008093D02*
X005795Y008093D01*
X005795Y008152D02*
X005736Y008152D01*
X005736Y008210D02*
X005795Y008210D01*
X005812Y008269D02*
X005736Y008269D01*
X005736Y008327D02*
X005859Y008327D01*
X005801Y008386D02*
X005736Y008386D01*
X005736Y008444D02*
X005742Y008444D01*
X005904Y008678D02*
X007395Y008678D01*
X007433Y008620D02*
X007315Y008620D01*
X007315Y008621D02*
X007291Y008645D01*
X007261Y008662D01*
X007228Y008671D01*
X006847Y008671D01*
X006847Y008354D01*
X006787Y008354D01*
X006787Y008294D01*
X006294Y008294D01*
X006294Y008091D01*
X006303Y008057D01*
X006320Y008028D01*
X006344Y008004D01*
X006374Y007986D01*
X006407Y007978D01*
X006787Y007978D01*
X006787Y008294D01*
X006847Y008294D01*
X006847Y007978D01*
X007228Y007978D01*
X007261Y007986D01*
X007291Y008004D01*
X007315Y008028D01*
X007332Y008057D01*
X007341Y008091D01*
X007341Y008294D01*
X006847Y008294D01*
X006847Y008354D01*
X007341Y008354D01*
X007341Y008558D01*
X007332Y008591D01*
X007315Y008621D01*
X007340Y008561D02*
X007491Y008561D01*
X007341Y008503D02*
X008090Y008503D01*
X008090Y008561D02*
X007769Y008561D01*
X007827Y008620D02*
X008090Y008620D01*
X008090Y008678D02*
X007865Y008678D01*
X007865Y008737D02*
X008090Y008737D01*
X008090Y008795D02*
X007865Y008795D01*
X007863Y008854D02*
X008090Y008854D01*
X008090Y008912D02*
X007805Y008912D01*
X007746Y008971D02*
X008090Y008971D01*
X008090Y009029D02*
X007553Y009029D01*
X007495Y009088D02*
X008090Y009088D01*
X008090Y009146D02*
X007427Y009146D01*
X007533Y009220D02*
X007408Y009345D01*
X007377Y009313D01*
X007061Y009313D01*
X007051Y009323D01*
X007037Y009309D01*
X007007Y009292D01*
X006974Y009283D01*
X006869Y009283D01*
X006869Y009527D01*
X006813Y009527D01*
X006595Y009527D01*
X006595Y009396D01*
X006604Y009363D01*
X006621Y009333D01*
X006645Y009309D01*
X006675Y009292D01*
X006708Y009283D01*
X006813Y009283D01*
X006813Y009527D01*
X006813Y009583D01*
X006813Y009827D01*
X006708Y009827D01*
X006675Y009818D01*
X006645Y009801D01*
X006621Y009776D01*
X006604Y009747D01*
X006595Y009714D01*
X006595Y009583D01*
X006813Y009583D01*
X006869Y009583D01*
X006869Y009827D01*
X006974Y009827D01*
X007007Y009818D01*
X007037Y009801D01*
X007051Y009786D01*
X007061Y009797D01*
X007377Y009797D01*
X007435Y009738D01*
X007435Y009695D01*
X007588Y009695D01*
X007593Y009690D01*
X007727Y009690D01*
X007865Y009552D01*
X007865Y009358D01*
X007727Y009220D01*
X007533Y009220D01*
X007489Y009263D02*
X005365Y009263D01*
X005365Y009322D02*
X006632Y009322D01*
X006599Y009380D02*
X005365Y009380D01*
X005365Y009439D02*
X006595Y009439D01*
X006595Y009497D02*
X005320Y009497D01*
X005270Y009556D02*
X005576Y009556D01*
X005578Y009554D02*
X005608Y009537D01*
X005641Y009528D01*
X005815Y009528D01*
X005815Y009825D01*
X005528Y009825D01*
X005528Y009641D01*
X005537Y009608D01*
X005554Y009578D01*
X005578Y009554D01*
X005535Y009614D02*
X005500Y009614D01*
X005502Y009673D02*
X005528Y009673D01*
X005528Y009731D02*
X005502Y009731D01*
X005502Y009790D02*
X005528Y009790D01*
X005502Y009848D02*
X005815Y009848D01*
X005815Y009825D02*
X005815Y009885D01*
X005815Y010182D01*
X005641Y010182D01*
X005608Y010173D01*
X005578Y010156D01*
X005554Y010132D01*
X005537Y010102D01*
X005528Y010069D01*
X005528Y009885D01*
X005815Y009885D01*
X005875Y009885D01*
X005875Y010182D01*
X006049Y010182D01*
X006082Y010173D01*
X006112Y010156D01*
X006136Y010132D01*
X006153Y010102D01*
X006162Y010069D01*
X006162Y009885D01*
X005875Y009885D01*
X005875Y009825D01*
X006162Y009825D01*
X006162Y009641D01*
X006153Y009608D01*
X006136Y009578D01*
X006112Y009554D01*
X006082Y009537D01*
X006049Y009528D01*
X005875Y009528D01*
X005875Y009825D01*
X005815Y009825D01*
X005815Y009790D02*
X005875Y009790D01*
X005875Y009848D02*
X008090Y009848D01*
X008090Y009790D02*
X007383Y009790D01*
X007435Y009731D02*
X008090Y009731D01*
X008090Y009673D02*
X007744Y009673D01*
X007803Y009614D02*
X008090Y009614D01*
X008090Y009556D02*
X007861Y009556D01*
X007865Y009497D02*
X008090Y009497D01*
X008090Y009439D02*
X007865Y009439D01*
X007865Y009380D02*
X008090Y009380D01*
X008090Y009322D02*
X007829Y009322D01*
X007771Y009263D02*
X008090Y009263D01*
X008090Y009205D02*
X005312Y009205D01*
X005254Y009146D02*
X006633Y009146D01*
X006813Y009322D02*
X006869Y009322D01*
X006869Y009380D02*
X006813Y009380D01*
X006813Y009439D02*
X006869Y009439D01*
X006869Y009497D02*
X006813Y009497D01*
X006813Y009556D02*
X006114Y009556D01*
X006155Y009614D02*
X006595Y009614D01*
X006595Y009673D02*
X006162Y009673D01*
X006162Y009731D02*
X006600Y009731D01*
X006634Y009790D02*
X006162Y009790D01*
X006162Y009907D02*
X008090Y009907D01*
X008090Y009965D02*
X007587Y009965D01*
X007595Y009970D02*
X007619Y009994D01*
X007637Y010024D01*
X007645Y010057D01*
X007645Y010271D01*
X007260Y010271D01*
X007260Y010331D01*
X007200Y010331D01*
X007200Y010271D01*
X006815Y010271D01*
X006815Y010057D01*
X006823Y010024D01*
X006841Y009994D01*
X006865Y009970D01*
X006894Y009953D01*
X006927Y009944D01*
X007200Y009944D01*
X007200Y010271D01*
X007260Y010271D01*
X007260Y009944D01*
X007533Y009944D01*
X007566Y009953D01*
X007595Y009970D01*
X007637Y010024D02*
X008090Y010024D01*
X008090Y010082D02*
X007645Y010082D01*
X007645Y010141D02*
X008090Y010141D01*
X008090Y010199D02*
X007645Y010199D01*
X007645Y010258D02*
X008090Y010258D01*
X008090Y010316D02*
X007260Y010316D01*
X007260Y010331D02*
X007645Y010331D01*
X007645Y010544D01*
X007637Y010577D01*
X007619Y010607D01*
X007595Y010631D01*
X007566Y010648D01*
X007533Y010657D01*
X007260Y010657D01*
X007260Y010331D01*
X007260Y010375D02*
X007200Y010375D01*
X007200Y010433D02*
X007260Y010433D01*
X007260Y010492D02*
X007200Y010492D01*
X007200Y010550D02*
X007260Y010550D01*
X007260Y010609D02*
X007200Y010609D01*
X007158Y010667D02*
X008019Y010667D01*
X007961Y010726D02*
X007600Y010726D01*
X007615Y010784D02*
X007902Y010784D01*
X007844Y010843D02*
X007615Y010843D01*
X007615Y010901D02*
X007785Y010901D01*
X007970Y011113D02*
X007888Y011195D01*
X007615Y011195D01*
X007615Y011277D01*
X007557Y011336D01*
X007119Y011336D01*
X007082Y011376D01*
X007082Y011648D01*
X007092Y011633D01*
X007144Y011581D01*
X007206Y011539D01*
X007275Y011511D01*
X007348Y011496D01*
X007355Y011496D01*
X007355Y011844D01*
X007415Y011844D01*
X007415Y011904D01*
X007762Y011904D01*
X007762Y011911D01*
X007748Y011984D01*
X007719Y012053D01*
X007678Y012114D01*
X007625Y012167D01*
X007564Y012208D01*
X007495Y012237D01*
X007422Y012251D01*
X007415Y012251D01*
X007415Y011904D01*
X007355Y011904D01*
X007355Y012251D01*
X007348Y012251D01*
X007275Y012237D01*
X007206Y012208D01*
X007144Y012167D01*
X007121Y012143D01*
X007121Y012309D01*
X007062Y012367D01*
X006822Y012367D01*
X006814Y012360D01*
X006806Y012367D01*
X006566Y012367D01*
X006558Y012360D01*
X006550Y012367D01*
X006310Y012367D01*
X006302Y012360D01*
X006294Y012367D01*
X006081Y012367D01*
X006077Y012372D01*
X006047Y012389D01*
X006014Y012397D01*
X005928Y012397D01*
X005928Y012011D01*
X005909Y012011D01*
X005909Y012397D01*
X005822Y012397D01*
X005789Y012389D01*
X005760Y012372D01*
X005735Y012347D01*
X005718Y012318D01*
X005709Y012285D01*
X005709Y012171D01*
X005654Y012208D01*
X005585Y012237D01*
X005512Y012251D01*
X005505Y012251D01*
X005505Y011904D01*
X005445Y011904D01*
X005445Y012251D01*
X005438Y012251D01*
X005365Y012237D01*
X005296Y012208D01*
X005235Y012167D01*
X005182Y012114D01*
X005141Y012053D01*
X005112Y011984D01*
X005106Y011954D02*
X004228Y011954D01*
X004170Y012013D02*
X004170Y012250D01*
X004213Y012250D01*
X004272Y012308D01*
X004272Y012623D01*
X004262Y012634D01*
X004276Y012648D01*
X004293Y012678D01*
X004302Y012711D01*
X004302Y012816D01*
X004058Y012816D01*
X004058Y012872D01*
X004002Y012872D01*
X004002Y013090D01*
X003871Y013090D01*
X003838Y013081D01*
X003808Y013064D01*
X003784Y013040D01*
X003784Y013039D01*
X003784Y013645D01*
X008342Y013645D01*
X008342Y013292D01*
X008308Y013359D01*
X008254Y013433D01*
X008190Y013497D01*
X008116Y013551D01*
X008035Y013592D01*
X007948Y013621D01*
X007858Y013635D01*
X007842Y013635D01*
X007842Y013085D01*
X007782Y013085D01*
X007782Y013635D01*
X007766Y013635D01*
X007676Y013621D01*
X007589Y013592D01*
X007508Y013551D01*
X007434Y013497D01*
X007369Y013433D01*
X007316Y013359D01*
X007274Y013278D01*
X007246Y013191D01*
X007232Y013101D01*
X007232Y013085D01*
X007782Y013085D01*
X007782Y013025D01*
X007842Y013025D01*
X007842Y012475D01*
X007858Y012475D01*
X007948Y012489D01*
X008035Y012517D01*
X008116Y012559D01*
X008190Y012612D01*
X008254Y012677D01*
X008308Y012751D01*
X008342Y012818D01*
X008342Y010741D01*
X007970Y011113D01*
X007947Y011135D02*
X008342Y011135D01*
X008342Y011077D02*
X008006Y011077D01*
X008064Y011018D02*
X008342Y011018D01*
X008342Y010960D02*
X008123Y010960D01*
X008181Y010901D02*
X008342Y010901D01*
X008342Y010843D02*
X008240Y010843D01*
X008298Y010784D02*
X008342Y010784D01*
X008078Y010609D02*
X007617Y010609D01*
X007644Y010550D02*
X008090Y010550D01*
X008090Y010492D02*
X007645Y010492D01*
X007645Y010433D02*
X008090Y010433D01*
X008090Y010375D02*
X007645Y010375D01*
X007260Y010258D02*
X007200Y010258D01*
X007200Y010316D02*
X006705Y010316D01*
X006759Y010375D02*
X006815Y010375D01*
X006815Y010433D02*
X006759Y010433D01*
X006759Y010492D02*
X006815Y010492D01*
X006815Y010258D02*
X004938Y010258D01*
X004938Y010199D02*
X006815Y010199D01*
X006815Y010141D02*
X006127Y010141D01*
X006158Y010082D02*
X006815Y010082D01*
X006823Y010024D02*
X006162Y010024D01*
X006162Y009965D02*
X006873Y009965D01*
X006869Y009790D02*
X006813Y009790D01*
X006813Y009731D02*
X006869Y009731D01*
X006869Y009673D02*
X006813Y009673D01*
X006813Y009614D02*
X006869Y009614D01*
X007048Y009790D02*
X007055Y009790D01*
X007200Y009965D02*
X007260Y009965D01*
X007260Y010024D02*
X007200Y010024D01*
X007200Y010082D02*
X007260Y010082D01*
X007260Y010141D02*
X007200Y010141D01*
X007200Y010199D02*
X007260Y010199D01*
X006845Y010843D02*
X006759Y010843D01*
X006759Y010901D02*
X006845Y010901D01*
X006845Y010960D02*
X006758Y010960D01*
X006759Y011018D02*
X006845Y011018D01*
X006845Y011077D02*
X006759Y011077D01*
X006772Y011135D02*
X006845Y011135D01*
X006845Y011194D02*
X006789Y011194D01*
X006789Y011252D02*
X006812Y011252D01*
X006801Y011311D02*
X006789Y011311D01*
X006802Y011369D02*
X006768Y011369D01*
X006802Y011428D02*
X004755Y011428D01*
X004696Y011486D02*
X006802Y011486D01*
X006802Y011545D02*
X005663Y011545D01*
X005739Y011603D02*
X006802Y011603D01*
X007082Y011603D02*
X007121Y011603D01*
X007082Y011545D02*
X007197Y011545D01*
X007355Y011545D02*
X007415Y011545D01*
X007415Y011496D02*
X007422Y011496D01*
X007495Y011511D01*
X007564Y011539D01*
X007625Y011581D01*
X007678Y011633D01*
X007719Y011695D01*
X007748Y011764D01*
X007762Y011837D01*
X007762Y011844D01*
X007415Y011844D01*
X007415Y011496D01*
X007415Y011603D02*
X007355Y011603D01*
X007355Y011662D02*
X007415Y011662D01*
X007415Y011720D02*
X007355Y011720D01*
X007355Y011779D02*
X007415Y011779D01*
X007415Y011837D02*
X007355Y011837D01*
X007415Y011896D02*
X008342Y011896D01*
X008342Y011954D02*
X007754Y011954D01*
X007736Y012013D02*
X008342Y012013D01*
X008342Y012071D02*
X007707Y012071D01*
X007662Y012130D02*
X008342Y012130D01*
X008342Y012188D02*
X007593Y012188D01*
X007444Y012247D02*
X008342Y012247D01*
X008342Y012305D02*
X007121Y012305D01*
X007121Y012247D02*
X007326Y012247D01*
X007355Y012247D02*
X007415Y012247D01*
X007415Y012188D02*
X007355Y012188D01*
X007355Y012130D02*
X007415Y012130D01*
X007415Y012071D02*
X007355Y012071D01*
X007355Y012013D02*
X007415Y012013D01*
X007415Y011954D02*
X007355Y011954D01*
X007176Y012188D02*
X007121Y012188D01*
X007066Y012364D02*
X008342Y012364D01*
X008342Y012422D02*
X004272Y012422D01*
X004272Y012364D02*
X005752Y012364D01*
X005715Y012305D02*
X004269Y012305D01*
X004170Y012247D02*
X005416Y012247D01*
X005445Y012247D02*
X005505Y012247D01*
X005534Y012247D02*
X005709Y012247D01*
X005709Y012188D02*
X005684Y012188D01*
X005505Y012188D02*
X005445Y012188D01*
X005445Y012130D02*
X005505Y012130D01*
X005505Y012071D02*
X005445Y012071D01*
X005445Y012013D02*
X005505Y012013D01*
X005505Y011954D02*
X005445Y011954D01*
X005445Y011896D02*
X004287Y011896D01*
X004345Y011837D02*
X005098Y011837D01*
X005109Y011779D02*
X004404Y011779D01*
X004462Y011720D02*
X005130Y011720D01*
X005163Y011662D02*
X004521Y011662D01*
X004579Y011603D02*
X005212Y011603D01*
X005288Y011545D02*
X004638Y011545D01*
X004417Y011369D02*
X004058Y011369D01*
X004058Y011372D02*
X004302Y011372D01*
X004302Y011477D01*
X004299Y011488D01*
X004501Y011286D01*
X004501Y011158D01*
X004509Y011150D01*
X004501Y011142D01*
X004501Y010995D01*
X004276Y010995D01*
X004272Y010997D01*
X004272Y011123D01*
X004262Y011134D01*
X004276Y011148D01*
X004293Y011178D01*
X004302Y011211D01*
X004302Y011316D01*
X004058Y011316D01*
X004058Y011372D01*
X004002Y011372D01*
X004002Y011590D01*
X003871Y011590D01*
X003838Y011581D01*
X003808Y011564D01*
X003784Y011540D01*
X003767Y011510D01*
X003758Y011477D01*
X003758Y011372D01*
X004002Y011372D01*
X004002Y011316D01*
X003758Y011316D01*
X003758Y011211D01*
X003767Y011178D01*
X003784Y011148D01*
X003798Y011134D01*
X003788Y011123D01*
X003788Y010808D01*
X003799Y010798D01*
X002721Y010798D01*
X002721Y011845D01*
X002662Y011904D01*
X002185Y011904D01*
X002127Y011845D01*
X002127Y009951D01*
X002185Y009893D01*
X002296Y009893D01*
X002273Y009869D01*
X002273Y009795D01*
X001822Y009795D01*
X001755Y009863D01*
X001850Y009863D01*
X001883Y009872D01*
X001913Y009889D01*
X001937Y009913D01*
X001954Y009942D01*
X001963Y009976D01*
X001963Y010868D01*
X001666Y010868D01*
X001666Y010928D01*
X001606Y010928D01*
X001606Y010868D01*
X001309Y010868D01*
X001309Y009976D01*
X001318Y009942D01*
X001335Y009913D01*
X001360Y009889D01*
X001389Y009872D01*
X001422Y009863D01*
X001505Y009863D01*
X001395Y009752D01*
X001395Y009618D01*
X001090Y009313D01*
X001090Y006413D01*
X000972Y006295D01*
X000872Y006295D01*
X000790Y006213D01*
X000770Y006193D01*
X000770Y010363D01*
X000865Y010458D01*
X000865Y010652D01*
X000727Y010790D01*
X000533Y010790D01*
X000395Y010652D01*
X000395Y010458D01*
X000490Y010363D01*
X000490Y006213D01*
X000372Y006095D01*
X000310Y006033D01*
X000310Y012201D01*
X000335Y012176D01*
X001048Y012176D01*
X001106Y012235D01*
X001106Y013645D01*
X002954Y013645D01*
X002954Y012235D01*
X003012Y012176D01*
X003725Y012176D01*
X003784Y012235D01*
X003784Y012649D01*
X003784Y012648D01*
X003798Y012634D01*
X003788Y012623D01*
X003788Y012308D01*
X003847Y012250D01*
X003890Y012250D01*
X003890Y011897D01*
X004140Y011647D01*
X004200Y011587D01*
X004189Y011590D01*
X004058Y011590D01*
X004058Y011372D01*
X004058Y011428D02*
X004002Y011428D01*
X004002Y011486D02*
X004058Y011486D01*
X004058Y011545D02*
X004002Y011545D01*
X004002Y011369D02*
X002721Y011369D01*
X002721Y011311D02*
X003758Y011311D01*
X003758Y011252D02*
X002721Y011252D01*
X002721Y011194D02*
X003763Y011194D01*
X003797Y011135D02*
X002721Y011135D01*
X002721Y011077D02*
X003788Y011077D01*
X003788Y011018D02*
X002721Y011018D01*
X002721Y010960D02*
X003788Y010960D01*
X003788Y010901D02*
X002721Y010901D01*
X002721Y010843D02*
X003788Y010843D01*
X004016Y010492D02*
X004501Y010492D01*
X004501Y010433D02*
X004024Y010433D01*
X004024Y010375D02*
X004501Y010375D01*
X004555Y010316D02*
X003726Y010316D01*
X003726Y010300D02*
X004024Y010300D01*
X004024Y010194D01*
X004015Y010161D01*
X003998Y010131D01*
X003974Y010107D01*
X003944Y010090D01*
X003911Y010081D01*
X003726Y010081D01*
X003726Y010300D01*
X003726Y010258D02*
X003668Y010258D01*
X003668Y010316D02*
X002721Y010316D01*
X002721Y010258D02*
X003370Y010258D01*
X003370Y010199D02*
X002721Y010199D01*
X002721Y010141D02*
X003390Y010141D01*
X003377Y010078D02*
X003344Y010087D01*
X003160Y010087D01*
X003160Y009800D01*
X003457Y009800D01*
X003457Y009974D01*
X003448Y010007D01*
X003431Y010037D01*
X003407Y010061D01*
X003377Y010078D01*
X003361Y010082D02*
X003477Y010082D01*
X003438Y010024D02*
X004266Y010024D01*
X004266Y010082D02*
X003917Y010082D01*
X004004Y010141D02*
X004293Y010141D01*
X004266Y009965D02*
X003457Y009965D01*
X003457Y009907D02*
X004266Y009907D01*
X004266Y009848D02*
X003457Y009848D01*
X003450Y009790D02*
X003160Y009790D01*
X003160Y009740D02*
X003100Y009740D01*
X003100Y009453D01*
X002980Y009453D01*
X003011Y009427D01*
X003212Y009427D01*
X003251Y009453D01*
X003160Y009453D01*
X003160Y009740D01*
X003160Y009731D02*
X003100Y009731D01*
X003100Y009673D02*
X003160Y009673D01*
X003160Y009614D02*
X003100Y009614D01*
X003100Y009556D02*
X003160Y009556D01*
X003160Y009497D02*
X003100Y009497D01*
X002997Y009439D02*
X003230Y009439D01*
X003400Y009740D02*
X003400Y009740D01*
X003160Y009848D02*
X003100Y009848D01*
X003100Y009790D02*
X002787Y009790D01*
X002787Y009848D02*
X002803Y009848D01*
X002803Y009907D02*
X002749Y009907D01*
X002721Y009965D02*
X002803Y009965D01*
X002822Y010024D02*
X002721Y010024D01*
X002721Y010082D02*
X002899Y010082D01*
X003100Y010082D02*
X003160Y010082D01*
X003160Y010024D02*
X003100Y010024D01*
X003100Y009965D02*
X003160Y009965D01*
X003160Y009907D02*
X003100Y009907D01*
X002803Y009731D02*
X002787Y009731D01*
X002787Y009673D02*
X002803Y009673D01*
X002803Y009614D02*
X002792Y009614D01*
X002273Y009848D02*
X001769Y009848D01*
X001931Y009907D02*
X002171Y009907D01*
X002127Y009965D02*
X001960Y009965D01*
X001963Y010024D02*
X002127Y010024D01*
X002127Y010082D02*
X001963Y010082D01*
X001963Y010141D02*
X002127Y010141D01*
X002127Y010199D02*
X001963Y010199D01*
X001963Y010258D02*
X002127Y010258D01*
X002127Y010316D02*
X001963Y010316D01*
X001963Y010375D02*
X002127Y010375D01*
X002127Y010433D02*
X001963Y010433D01*
X001963Y010492D02*
X002127Y010492D01*
X002127Y010550D02*
X001963Y010550D01*
X001963Y010609D02*
X002127Y010609D01*
X002127Y010667D02*
X001963Y010667D01*
X001963Y010726D02*
X002127Y010726D01*
X002127Y010784D02*
X001963Y010784D01*
X001963Y010843D02*
X002127Y010843D01*
X002127Y010901D02*
X001666Y010901D01*
X001666Y010928D02*
X001963Y010928D01*
X001963Y011821D01*
X001954Y011854D01*
X001937Y011884D01*
X001913Y011908D01*
X001883Y011925D01*
X001850Y011934D01*
X001666Y011934D01*
X001666Y010928D01*
X001666Y010960D02*
X001606Y010960D01*
X001606Y010928D02*
X001606Y011934D01*
X001422Y011934D01*
X001389Y011925D01*
X001360Y011908D01*
X001335Y011884D01*
X001318Y011854D01*
X001309Y011821D01*
X001309Y010928D01*
X001606Y010928D01*
X001606Y010901D02*
X000310Y010901D01*
X000310Y010843D02*
X001309Y010843D01*
X001309Y010784D02*
X000733Y010784D01*
X000791Y010726D02*
X001309Y010726D01*
X001309Y010667D02*
X000850Y010667D01*
X000865Y010609D02*
X001309Y010609D01*
X001309Y010550D02*
X000865Y010550D01*
X000865Y010492D02*
X001309Y010492D01*
X001309Y010433D02*
X000841Y010433D01*
X000782Y010375D02*
X001309Y010375D01*
X001309Y010316D02*
X000770Y010316D01*
X000770Y010258D02*
X001309Y010258D01*
X001309Y010199D02*
X000770Y010199D01*
X000770Y010141D02*
X001309Y010141D01*
X001309Y010082D02*
X000770Y010082D01*
X000770Y010024D02*
X001309Y010024D01*
X001312Y009965D02*
X000770Y009965D01*
X000770Y009907D02*
X001341Y009907D01*
X001433Y009790D02*
X000770Y009790D01*
X000770Y009848D02*
X001491Y009848D01*
X001395Y009731D02*
X000770Y009731D01*
X000770Y009673D02*
X001395Y009673D01*
X001392Y009614D02*
X000770Y009614D01*
X000770Y009556D02*
X001333Y009556D01*
X001275Y009497D02*
X000770Y009497D01*
X000770Y009439D02*
X001216Y009439D01*
X001158Y009380D02*
X000770Y009380D01*
X000770Y009322D02*
X001099Y009322D01*
X001090Y009263D02*
X000770Y009263D01*
X000770Y009205D02*
X001090Y009205D01*
X001090Y009146D02*
X000770Y009146D01*
X000770Y009088D02*
X001090Y009088D01*
X001090Y009029D02*
X000770Y009029D01*
X000770Y008971D02*
X001090Y008971D01*
X001090Y008912D02*
X000770Y008912D01*
X000770Y008854D02*
X001090Y008854D01*
X001090Y008795D02*
X000770Y008795D01*
X000770Y008737D02*
X001090Y008737D01*
X001090Y008678D02*
X000770Y008678D01*
X000770Y008620D02*
X001090Y008620D01*
X001090Y008561D02*
X000770Y008561D01*
X000770Y008503D02*
X001090Y008503D01*
X001090Y008444D02*
X000770Y008444D01*
X000770Y008386D02*
X001090Y008386D01*
X001090Y008327D02*
X000770Y008327D01*
X000770Y008269D02*
X001090Y008269D01*
X001090Y008210D02*
X000770Y008210D01*
X000770Y008152D02*
X001090Y008152D01*
X001090Y008093D02*
X000770Y008093D01*
X000770Y008035D02*
X001090Y008035D01*
X001090Y007976D02*
X000770Y007976D01*
X000770Y007918D02*
X001090Y007918D01*
X001090Y007859D02*
X000770Y007859D01*
X000770Y007801D02*
X001090Y007801D01*
X001090Y007742D02*
X000770Y007742D01*
X000770Y007684D02*
X001090Y007684D01*
X001090Y007625D02*
X000770Y007625D01*
X000770Y007567D02*
X001090Y007567D01*
X001090Y007508D02*
X000770Y007508D01*
X000770Y007450D02*
X001090Y007450D01*
X001090Y007391D02*
X000770Y007391D01*
X000770Y007333D02*
X001090Y007333D01*
X001090Y007274D02*
X000770Y007274D01*
X000770Y007216D02*
X001090Y007216D01*
X001090Y007157D02*
X000770Y007157D01*
X000770Y007099D02*
X001090Y007099D01*
X001090Y007040D02*
X000770Y007040D01*
X000770Y006982D02*
X001090Y006982D01*
X001090Y006923D02*
X000770Y006923D01*
X000770Y006865D02*
X001090Y006865D01*
X001090Y006806D02*
X000770Y006806D01*
X000770Y006748D02*
X001090Y006748D01*
X001090Y006689D02*
X000770Y006689D01*
X000770Y006631D02*
X001090Y006631D01*
X001090Y006572D02*
X000770Y006572D01*
X000770Y006514D02*
X001090Y006514D01*
X001090Y006455D02*
X000770Y006455D01*
X000770Y006397D02*
X001074Y006397D01*
X001016Y006338D02*
X000770Y006338D01*
X000770Y006280D02*
X000857Y006280D01*
X000799Y006221D02*
X000770Y006221D01*
X000490Y006221D02*
X000310Y006221D01*
X000310Y006163D02*
X000440Y006163D01*
X000382Y006104D02*
X000310Y006104D01*
X000310Y006046D02*
X000323Y006046D01*
X000310Y006280D02*
X000490Y006280D01*
X000490Y006338D02*
X000310Y006338D01*
X000310Y006397D02*
X000490Y006397D01*
X000490Y006455D02*
X000310Y006455D01*
X000310Y006514D02*
X000490Y006514D01*
X000490Y006572D02*
X000310Y006572D01*
X000310Y006631D02*
X000490Y006631D01*
X000490Y006689D02*
X000310Y006689D01*
X000310Y006748D02*
X000490Y006748D01*
X000490Y006806D02*
X000310Y006806D01*
X000310Y006865D02*
X000490Y006865D01*
X000490Y006923D02*
X000310Y006923D01*
X000310Y006982D02*
X000490Y006982D01*
X000490Y007040D02*
X000310Y007040D01*
X000310Y007099D02*
X000490Y007099D01*
X000490Y007157D02*
X000310Y007157D01*
X000310Y007216D02*
X000490Y007216D01*
X000490Y007274D02*
X000310Y007274D01*
X000310Y007333D02*
X000490Y007333D01*
X000490Y007391D02*
X000310Y007391D01*
X000310Y007450D02*
X000490Y007450D01*
X000490Y007508D02*
X000310Y007508D01*
X000310Y007567D02*
X000490Y007567D01*
X000490Y007625D02*
X000310Y007625D01*
X000310Y007684D02*
X000490Y007684D01*
X000490Y007742D02*
X000310Y007742D01*
X000310Y007801D02*
X000490Y007801D01*
X000490Y007859D02*
X000310Y007859D01*
X000310Y007918D02*
X000490Y007918D01*
X000490Y007976D02*
X000310Y007976D01*
X000310Y008035D02*
X000490Y008035D01*
X000490Y008093D02*
X000310Y008093D01*
X000310Y008152D02*
X000490Y008152D01*
X000490Y008210D02*
X000310Y008210D01*
X000310Y008269D02*
X000490Y008269D01*
X000490Y008327D02*
X000310Y008327D01*
X000310Y008386D02*
X000490Y008386D01*
X000490Y008444D02*
X000310Y008444D01*
X000310Y008503D02*
X000490Y008503D01*
X000490Y008561D02*
X000310Y008561D01*
X000310Y008620D02*
X000490Y008620D01*
X000490Y008678D02*
X000310Y008678D01*
X000310Y008737D02*
X000490Y008737D01*
X000490Y008795D02*
X000310Y008795D01*
X000310Y008854D02*
X000490Y008854D01*
X000490Y008912D02*
X000310Y008912D01*
X000310Y008971D02*
X000490Y008971D01*
X000490Y009029D02*
X000310Y009029D01*
X000310Y009088D02*
X000490Y009088D01*
X000490Y009146D02*
X000310Y009146D01*
X000310Y009205D02*
X000490Y009205D01*
X000490Y009263D02*
X000310Y009263D01*
X000310Y009322D02*
X000490Y009322D01*
X000490Y009380D02*
X000310Y009380D01*
X000310Y009439D02*
X000490Y009439D01*
X000490Y009497D02*
X000310Y009497D01*
X000310Y009556D02*
X000490Y009556D01*
X000490Y009614D02*
X000310Y009614D01*
X000310Y009673D02*
X000490Y009673D01*
X000490Y009731D02*
X000310Y009731D01*
X000310Y009790D02*
X000490Y009790D01*
X000490Y009848D02*
X000310Y009848D01*
X000310Y009907D02*
X000490Y009907D01*
X000490Y009965D02*
X000310Y009965D01*
X000310Y010024D02*
X000490Y010024D01*
X000490Y010082D02*
X000310Y010082D01*
X000310Y010141D02*
X000490Y010141D01*
X000490Y010199D02*
X000310Y010199D01*
X000310Y010258D02*
X000490Y010258D01*
X000490Y010316D02*
X000310Y010316D01*
X000310Y010375D02*
X000478Y010375D01*
X000419Y010433D02*
X000310Y010433D01*
X000310Y010492D02*
X000395Y010492D01*
X000395Y010550D02*
X000310Y010550D01*
X000310Y010609D02*
X000395Y010609D01*
X000410Y010667D02*
X000310Y010667D01*
X000310Y010726D02*
X000469Y010726D01*
X000527Y010784D02*
X000310Y010784D01*
X000310Y010960D02*
X001309Y010960D01*
X001309Y011018D02*
X000310Y011018D01*
X000310Y011077D02*
X001309Y011077D01*
X001309Y011135D02*
X000310Y011135D01*
X000310Y011194D02*
X001309Y011194D01*
X001309Y011252D02*
X000310Y011252D01*
X000310Y011311D02*
X001309Y011311D01*
X001309Y011369D02*
X000310Y011369D01*
X000310Y011428D02*
X001309Y011428D01*
X001309Y011486D02*
X000310Y011486D01*
X000310Y011545D02*
X001309Y011545D01*
X001309Y011603D02*
X000310Y011603D01*
X000310Y011662D02*
X001309Y011662D01*
X001309Y011720D02*
X000310Y011720D01*
X000310Y011779D02*
X001309Y011779D01*
X001314Y011837D02*
X000310Y011837D01*
X000310Y011896D02*
X001348Y011896D01*
X001606Y011896D02*
X001666Y011896D01*
X001666Y011837D02*
X001606Y011837D01*
X001606Y011779D02*
X001666Y011779D01*
X001666Y011720D02*
X001606Y011720D01*
X001606Y011662D02*
X001666Y011662D01*
X001666Y011603D02*
X001606Y011603D01*
X001606Y011545D02*
X001666Y011545D01*
X001666Y011486D02*
X001606Y011486D01*
X001606Y011428D02*
X001666Y011428D01*
X001666Y011369D02*
X001606Y011369D01*
X001606Y011311D02*
X001666Y011311D01*
X001666Y011252D02*
X001606Y011252D01*
X001606Y011194D02*
X001666Y011194D01*
X001666Y011135D02*
X001606Y011135D01*
X001606Y011077D02*
X001666Y011077D01*
X001666Y011018D02*
X001606Y011018D01*
X001963Y011018D02*
X002127Y011018D01*
X002127Y010960D02*
X001963Y010960D01*
X001963Y011077D02*
X002127Y011077D01*
X002127Y011135D02*
X001963Y011135D01*
X001963Y011194D02*
X002127Y011194D01*
X002127Y011252D02*
X001963Y011252D01*
X001963Y011311D02*
X002127Y011311D01*
X002127Y011369D02*
X001963Y011369D01*
X001963Y011428D02*
X002127Y011428D01*
X002127Y011486D02*
X001963Y011486D01*
X001963Y011545D02*
X002127Y011545D01*
X002127Y011603D02*
X001963Y011603D01*
X001963Y011662D02*
X002127Y011662D01*
X002127Y011720D02*
X001963Y011720D01*
X001963Y011779D02*
X002127Y011779D01*
X002127Y011837D02*
X001959Y011837D01*
X001925Y011896D02*
X002178Y011896D01*
X002670Y011896D02*
X003891Y011896D01*
X003890Y011954D02*
X000310Y011954D01*
X000310Y012013D02*
X003890Y012013D01*
X003890Y012071D02*
X000310Y012071D01*
X000310Y012130D02*
X003890Y012130D01*
X003890Y012188D02*
X003737Y012188D01*
X003784Y012247D02*
X003890Y012247D01*
X003791Y012305D02*
X003784Y012305D01*
X003784Y012364D02*
X003788Y012364D01*
X003784Y012422D02*
X003788Y012422D01*
X003784Y012481D02*
X003788Y012481D01*
X003784Y012539D02*
X003788Y012539D01*
X003784Y012598D02*
X003788Y012598D01*
X004002Y012890D02*
X004058Y012890D01*
X004058Y012872D02*
X004058Y013090D01*
X004189Y013090D01*
X004222Y013081D01*
X004252Y013064D01*
X004276Y013040D01*
X004293Y013010D01*
X004302Y012977D01*
X004302Y012872D01*
X004058Y012872D01*
X004058Y012832D02*
X004511Y012832D01*
X004552Y012751D01*
X004606Y012677D01*
X004670Y012612D01*
X004744Y012559D01*
X004825Y012517D01*
X004912Y012489D01*
X005002Y012475D01*
X005018Y012475D01*
X005018Y013025D01*
X004468Y013025D01*
X004468Y013009D01*
X004482Y012919D01*
X004511Y012832D01*
X004492Y012890D02*
X004302Y012890D01*
X004302Y012949D02*
X004478Y012949D01*
X004468Y013007D02*
X004294Y013007D01*
X004248Y013066D02*
X005018Y013066D01*
X005018Y013085D02*
X005018Y013025D01*
X005078Y013025D01*
X005078Y012475D01*
X005094Y012475D01*
X005184Y012489D01*
X005271Y012517D01*
X005352Y012559D01*
X005426Y012612D01*
X005491Y012677D01*
X005544Y012751D01*
X005586Y012832D01*
X005614Y012919D01*
X005628Y013009D01*
X005628Y013025D01*
X005078Y013025D01*
X005078Y013085D01*
X005018Y013085D01*
X005018Y013635D01*
X005002Y013635D01*
X004912Y013621D01*
X004825Y013592D01*
X004744Y013551D01*
X004670Y013497D01*
X004606Y013433D01*
X004552Y013359D01*
X004511Y013278D01*
X004482Y013191D01*
X004468Y013101D01*
X004468Y013085D01*
X005018Y013085D01*
X005018Y013124D02*
X005078Y013124D01*
X005078Y013085D02*
X005078Y013635D01*
X005094Y013635D01*
X005184Y013621D01*
X005271Y013592D01*
X005352Y013551D01*
X005426Y013497D01*
X005491Y013433D01*
X005544Y013359D01*
X005586Y013278D01*
X005614Y013191D01*
X005628Y013101D01*
X005628Y013085D01*
X005078Y013085D01*
X005078Y013066D02*
X007782Y013066D01*
X007782Y013025D02*
X007232Y013025D01*
X007232Y013009D01*
X007246Y012919D01*
X007274Y012832D01*
X007316Y012751D01*
X007369Y012677D01*
X007434Y012612D01*
X007508Y012559D01*
X007589Y012517D01*
X007676Y012489D01*
X007766Y012475D01*
X007782Y012475D01*
X007782Y013025D01*
X007782Y013007D02*
X007842Y013007D01*
X007842Y012949D02*
X007782Y012949D01*
X007782Y012890D02*
X007842Y012890D01*
X007842Y012832D02*
X007782Y012832D01*
X007782Y012773D02*
X007842Y012773D01*
X007842Y012715D02*
X007782Y012715D01*
X007782Y012656D02*
X007842Y012656D01*
X007842Y012598D02*
X007782Y012598D01*
X007782Y012539D02*
X007842Y012539D01*
X007842Y012481D02*
X007782Y012481D01*
X007728Y012481D02*
X005132Y012481D01*
X005078Y012481D02*
X005018Y012481D01*
X004964Y012481D02*
X004272Y012481D01*
X004272Y012539D02*
X004782Y012539D01*
X004690Y012598D02*
X004272Y012598D01*
X004281Y012656D02*
X004626Y012656D01*
X004578Y012715D02*
X004302Y012715D01*
X004302Y012773D02*
X004541Y012773D01*
X004472Y013124D02*
X003784Y013124D01*
X003784Y013066D02*
X003812Y013066D01*
X003784Y013183D02*
X004481Y013183D01*
X004499Y013241D02*
X003784Y013241D01*
X003784Y013300D02*
X004522Y013300D01*
X004552Y013358D02*
X003784Y013358D01*
X003784Y013417D02*
X004594Y013417D01*
X004648Y013475D02*
X003784Y013475D01*
X003784Y013534D02*
X004721Y013534D01*
X004826Y013592D02*
X003784Y013592D01*
X004002Y013066D02*
X004058Y013066D01*
X004058Y013007D02*
X004002Y013007D01*
X004002Y012949D02*
X004058Y012949D01*
X004170Y012188D02*
X005267Y012188D01*
X005198Y012130D02*
X004170Y012130D01*
X004170Y012071D02*
X005153Y012071D01*
X005078Y012539D02*
X005018Y012539D01*
X005018Y012598D02*
X005078Y012598D01*
X005078Y012656D02*
X005018Y012656D01*
X005018Y012715D02*
X005078Y012715D01*
X005078Y012773D02*
X005018Y012773D01*
X005018Y012832D02*
X005078Y012832D01*
X005078Y012890D02*
X005018Y012890D01*
X005018Y012949D02*
X005078Y012949D01*
X005078Y013007D02*
X005018Y013007D01*
X005018Y013183D02*
X005078Y013183D01*
X005078Y013241D02*
X005018Y013241D01*
X005018Y013300D02*
X005078Y013300D01*
X005078Y013358D02*
X005018Y013358D01*
X005018Y013417D02*
X005078Y013417D01*
X005078Y013475D02*
X005018Y013475D01*
X005018Y013534D02*
X005078Y013534D01*
X005078Y013592D02*
X005018Y013592D01*
X005271Y013592D02*
X007589Y013592D01*
X007484Y013534D02*
X005376Y013534D01*
X005448Y013475D02*
X007412Y013475D01*
X007358Y013417D02*
X005502Y013417D01*
X005544Y013358D02*
X007316Y013358D01*
X007286Y013300D02*
X005574Y013300D01*
X005597Y013241D02*
X007263Y013241D01*
X007245Y013183D02*
X005615Y013183D01*
X005624Y013124D02*
X007236Y013124D01*
X007232Y013007D02*
X005628Y013007D01*
X005619Y012949D02*
X007241Y012949D01*
X007255Y012890D02*
X005605Y012890D01*
X005585Y012832D02*
X007275Y012832D01*
X007304Y012773D02*
X005556Y012773D01*
X005518Y012715D02*
X007342Y012715D01*
X007390Y012656D02*
X005470Y012656D01*
X005406Y012598D02*
X007454Y012598D01*
X007546Y012539D02*
X005314Y012539D01*
X005445Y011837D02*
X005505Y011837D01*
X005505Y011779D02*
X005445Y011779D01*
X005445Y011720D02*
X005505Y011720D01*
X005505Y011662D02*
X005445Y011662D01*
X005445Y011603D02*
X005505Y011603D01*
X005505Y011545D02*
X005445Y011545D01*
X005095Y011311D02*
X006135Y011311D01*
X006135Y011252D02*
X005095Y011252D01*
X005095Y011194D02*
X006135Y011194D01*
X006152Y011135D02*
X005095Y011135D01*
X005095Y011077D02*
X006165Y011077D01*
X006165Y011018D02*
X005095Y011018D01*
X005094Y010960D02*
X006166Y010960D01*
X006165Y010901D02*
X005095Y010901D01*
X005095Y010843D02*
X006165Y010843D01*
X006165Y010784D02*
X005095Y010784D01*
X005095Y010726D02*
X006165Y010726D01*
X006165Y010667D02*
X005095Y010667D01*
X005095Y010609D02*
X006165Y010609D01*
X006165Y010550D02*
X005095Y010550D01*
X005095Y010492D02*
X006165Y010492D01*
X006165Y010433D02*
X005095Y010433D01*
X005095Y010375D02*
X006165Y010375D01*
X006219Y010316D02*
X005041Y010316D01*
X004976Y010141D02*
X004938Y010141D01*
X004908Y009790D02*
X004854Y009790D01*
X004928Y009731D02*
X003994Y009731D01*
X003944Y009790D02*
X004272Y009790D01*
X004024Y010199D02*
X004658Y010199D01*
X004658Y010258D02*
X004024Y010258D01*
X003726Y010199D02*
X003668Y010199D01*
X003668Y010141D02*
X003726Y010141D01*
X003726Y010082D02*
X003668Y010082D01*
X003370Y010375D02*
X002721Y010375D01*
X002721Y010433D02*
X003370Y010433D01*
X003378Y010492D02*
X002721Y010492D01*
X002721Y011428D02*
X003758Y011428D01*
X003761Y011486D02*
X002721Y011486D01*
X002721Y011545D02*
X003789Y011545D01*
X004008Y011779D02*
X002721Y011779D01*
X002721Y011837D02*
X003949Y011837D01*
X004066Y011720D02*
X002721Y011720D01*
X002721Y011662D02*
X004125Y011662D01*
X004183Y011603D02*
X002721Y011603D01*
X003000Y012188D02*
X001060Y012188D01*
X001106Y012247D02*
X002954Y012247D01*
X002954Y012305D02*
X001106Y012305D01*
X001106Y012364D02*
X002954Y012364D01*
X002954Y012422D02*
X001106Y012422D01*
X001106Y012481D02*
X002954Y012481D01*
X002954Y012539D02*
X001106Y012539D01*
X001106Y012598D02*
X002954Y012598D01*
X002954Y012656D02*
X001106Y012656D01*
X001106Y012715D02*
X002954Y012715D01*
X002954Y012773D02*
X001106Y012773D01*
X001106Y012832D02*
X002954Y012832D01*
X002954Y012890D02*
X001106Y012890D01*
X001106Y012949D02*
X002954Y012949D01*
X002954Y013007D02*
X001106Y013007D01*
X001106Y013066D02*
X002954Y013066D01*
X002954Y013124D02*
X001106Y013124D01*
X001106Y013183D02*
X002954Y013183D01*
X002954Y013241D02*
X001106Y013241D01*
X001106Y013300D02*
X002954Y013300D01*
X002954Y013358D02*
X001106Y013358D01*
X001106Y013417D02*
X002954Y013417D01*
X002954Y013475D02*
X001106Y013475D01*
X001106Y013534D02*
X002954Y013534D01*
X002954Y013592D02*
X001106Y013592D01*
X000323Y012188D02*
X000310Y012188D01*
X001378Y009205D02*
X001388Y009205D01*
X001388Y009146D02*
X001370Y009146D01*
X001370Y009088D02*
X001388Y009088D01*
X001388Y009029D02*
X001370Y009029D01*
X001370Y008971D02*
X001404Y008971D01*
X001388Y008912D02*
X001370Y008912D01*
X001370Y008854D02*
X001388Y008854D01*
X001388Y008795D02*
X001370Y008795D01*
X001370Y008737D02*
X001388Y008737D01*
X001388Y008678D02*
X001370Y008678D01*
X001370Y008620D02*
X001388Y008620D01*
X001370Y008561D02*
X001435Y008561D01*
X001370Y008503D02*
X001949Y008503D01*
X001949Y008444D02*
X001370Y008444D01*
X001370Y008386D02*
X001949Y008386D01*
X001949Y008327D02*
X001370Y008327D01*
X001370Y008269D02*
X001949Y008269D01*
X001949Y008210D02*
X001370Y008210D01*
X001370Y008152D02*
X001949Y008152D01*
X001949Y008093D02*
X001370Y008093D01*
X001370Y008035D02*
X001980Y008035D01*
X001891Y008561D02*
X001825Y008561D01*
X001941Y007274D02*
X001370Y007274D01*
X001370Y007216D02*
X001919Y007216D01*
X001919Y007157D02*
X001370Y007157D01*
X001370Y007099D02*
X001919Y007099D01*
X002413Y007099D02*
X002473Y007099D01*
X002473Y007157D02*
X002413Y007157D01*
X002413Y007216D02*
X002473Y007216D01*
X002473Y007274D02*
X002413Y007274D01*
X002473Y006956D02*
X002966Y006956D01*
X002966Y006752D01*
X002957Y006719D01*
X002940Y006689D01*
X002916Y006665D01*
X002886Y006648D01*
X002853Y006639D01*
X002473Y006639D01*
X002473Y006956D01*
X002473Y006923D02*
X002413Y006923D01*
X002413Y006865D02*
X002473Y006865D01*
X002473Y006806D02*
X002413Y006806D01*
X002413Y006748D02*
X002473Y006748D01*
X002473Y006689D02*
X002413Y006689D01*
X002940Y006689D02*
X003197Y006689D01*
X003190Y006748D02*
X002965Y006748D01*
X002966Y006806D02*
X003190Y006806D01*
X003190Y006865D02*
X002966Y006865D01*
X002966Y006923D02*
X003190Y006923D01*
X003103Y007450D02*
X002936Y007450D01*
X002936Y007508D02*
X003044Y007508D01*
X003416Y007801D02*
X003524Y007801D01*
X003524Y007859D02*
X003370Y007859D01*
X003370Y007918D02*
X003529Y007918D01*
X003524Y007742D02*
X003465Y007742D01*
X003465Y007684D02*
X003524Y007684D01*
X003503Y007625D02*
X003465Y007625D01*
X004511Y007625D02*
X004603Y007625D01*
X004661Y007684D02*
X004511Y007684D01*
X004511Y007742D02*
X004720Y007742D01*
X004749Y007801D02*
X004511Y007801D01*
X004511Y007859D02*
X004749Y007859D01*
X004754Y007918D02*
X004506Y007918D01*
X004480Y008035D02*
X004780Y008035D01*
X004749Y008093D02*
X004511Y008093D01*
X004511Y008152D02*
X004749Y008152D01*
X004749Y008210D02*
X004511Y008210D01*
X004511Y008269D02*
X004749Y008269D01*
X004749Y008327D02*
X004511Y008327D01*
X004511Y008386D02*
X004749Y008386D01*
X004749Y008444D02*
X004511Y008444D01*
X004511Y008503D02*
X004749Y008503D01*
X004749Y008561D02*
X004511Y008561D01*
X004969Y009146D02*
X005006Y009146D01*
X004948Y009205D02*
X004929Y009205D01*
X004895Y009263D02*
X004889Y009263D01*
X004895Y009322D02*
X004850Y009322D01*
X004810Y009380D02*
X004895Y009380D01*
X004895Y009439D02*
X004770Y009439D01*
X004730Y009497D02*
X004940Y009497D01*
X004990Y009556D02*
X004690Y009556D01*
X004651Y009614D02*
X004930Y009614D01*
X004928Y009673D02*
X004611Y009673D01*
X004501Y011018D02*
X004272Y011018D01*
X004272Y011077D02*
X004501Y011077D01*
X004501Y011135D02*
X004263Y011135D01*
X004297Y011194D02*
X004501Y011194D01*
X004501Y011252D02*
X004302Y011252D01*
X004302Y011311D02*
X004476Y011311D01*
X004359Y011428D02*
X004302Y011428D01*
X004299Y011486D02*
X004300Y011486D01*
X005065Y011369D02*
X006156Y011369D01*
X006462Y011369D02*
X006462Y011369D01*
X006462Y011311D02*
X006462Y011311D01*
X006462Y011252D02*
X006462Y011252D01*
X005928Y011662D02*
X005909Y011662D01*
X005909Y011720D02*
X005928Y011720D01*
X005928Y011779D02*
X005909Y011779D01*
X005909Y011837D02*
X005928Y011837D01*
X005928Y011896D02*
X005909Y011896D01*
X005909Y011954D02*
X005928Y011954D01*
X005928Y012013D02*
X005909Y012013D01*
X005909Y012071D02*
X005928Y012071D01*
X005928Y012130D02*
X005909Y012130D01*
X005909Y012188D02*
X005928Y012188D01*
X005928Y012247D02*
X005909Y012247D01*
X005909Y012305D02*
X005928Y012305D01*
X005928Y012364D02*
X005909Y012364D01*
X006298Y012364D02*
X006306Y012364D01*
X006554Y012364D02*
X006562Y012364D01*
X006810Y012364D02*
X006818Y012364D01*
X007082Y011486D02*
X008342Y011486D01*
X008342Y011428D02*
X007082Y011428D01*
X007088Y011369D02*
X008342Y011369D01*
X008342Y011311D02*
X007582Y011311D01*
X007615Y011252D02*
X008342Y011252D01*
X008342Y011194D02*
X007889Y011194D01*
X007648Y011603D02*
X008342Y011603D01*
X008342Y011545D02*
X007572Y011545D01*
X007697Y011662D02*
X008342Y011662D01*
X008342Y011720D02*
X007730Y011720D01*
X007751Y011779D02*
X008342Y011779D01*
X008342Y011837D02*
X007762Y011837D01*
X007896Y012481D02*
X008342Y012481D01*
X008342Y012539D02*
X008078Y012539D01*
X008170Y012598D02*
X008342Y012598D01*
X008342Y012656D02*
X008234Y012656D01*
X008282Y012715D02*
X008342Y012715D01*
X008342Y012773D02*
X008319Y012773D01*
X008338Y013300D02*
X008342Y013300D01*
X008342Y013358D02*
X008308Y013358D01*
X008342Y013417D02*
X008266Y013417D01*
X008212Y013475D02*
X008342Y013475D01*
X008342Y013534D02*
X008139Y013534D01*
X008034Y013592D02*
X008342Y013592D01*
X007842Y013592D02*
X007782Y013592D01*
X007782Y013534D02*
X007842Y013534D01*
X007842Y013475D02*
X007782Y013475D01*
X007782Y013417D02*
X007842Y013417D01*
X007842Y013358D02*
X007782Y013358D01*
X007782Y013300D02*
X007842Y013300D01*
X007842Y013241D02*
X007782Y013241D01*
X007782Y013183D02*
X007842Y013183D01*
X007842Y013124D02*
X007782Y013124D01*
X005875Y010141D02*
X005815Y010141D01*
X005815Y010082D02*
X005875Y010082D01*
X005875Y010024D02*
X005815Y010024D01*
X005815Y009965D02*
X005875Y009965D01*
X005875Y009907D02*
X005815Y009907D01*
X005815Y009731D02*
X005875Y009731D01*
X005875Y009673D02*
X005815Y009673D01*
X005815Y009614D02*
X005875Y009614D01*
X005875Y009556D02*
X005815Y009556D01*
X005528Y009907D02*
X005502Y009907D01*
X005502Y009965D02*
X005528Y009965D01*
X005528Y010024D02*
X005502Y010024D01*
X005502Y010082D02*
X005532Y010082D01*
X005563Y010141D02*
X005454Y010141D01*
X005787Y008795D02*
X006625Y008795D01*
X006660Y008737D02*
X005846Y008737D01*
X005963Y008620D02*
X006319Y008620D01*
X006320Y008621D02*
X006303Y008591D01*
X006294Y008558D01*
X006294Y008354D01*
X006787Y008354D01*
X006787Y008671D01*
X006407Y008671D01*
X006374Y008662D01*
X006344Y008645D01*
X006320Y008621D01*
X006295Y008561D02*
X006021Y008561D01*
X006080Y008503D02*
X006294Y008503D01*
X006294Y008444D02*
X006138Y008444D01*
X006170Y008386D02*
X006294Y008386D01*
X006294Y008269D02*
X006248Y008269D01*
X006265Y008210D02*
X006294Y008210D01*
X006294Y008152D02*
X006265Y008152D01*
X006265Y008093D02*
X006294Y008093D01*
X006316Y008035D02*
X006242Y008035D01*
X006184Y007976D02*
X007554Y007976D01*
X007495Y007918D02*
X007306Y007918D01*
X007311Y007859D02*
X007437Y007859D01*
X007378Y007801D02*
X007311Y007801D01*
X007311Y007742D02*
X007320Y007742D01*
X007319Y008035D02*
X008090Y008035D01*
X008090Y008093D02*
X007341Y008093D01*
X007341Y008152D02*
X008090Y008152D01*
X008090Y008210D02*
X007341Y008210D01*
X007341Y008269D02*
X008090Y008269D01*
X008090Y008327D02*
X006847Y008327D01*
X006847Y008269D02*
X006787Y008269D01*
X006787Y008327D02*
X006190Y008327D01*
X006329Y007918D02*
X005731Y007918D01*
X005736Y007859D02*
X005902Y007859D01*
X005844Y007801D02*
X005736Y007801D01*
X005736Y007742D02*
X005795Y007742D01*
X005795Y007684D02*
X005736Y007684D01*
X005736Y007625D02*
X005795Y007625D01*
X005795Y007567D02*
X005736Y007567D01*
X005736Y007508D02*
X005844Y007508D01*
X005890Y007450D02*
X005736Y007450D01*
X005731Y007391D02*
X005869Y007391D01*
X005810Y007333D02*
X004770Y007333D01*
X004770Y007274D02*
X004780Y007274D01*
X004544Y007567D02*
X004511Y007567D01*
X003553Y005812D02*
X002907Y005812D01*
X002936Y005753D02*
X003524Y005753D01*
X003524Y005695D02*
X002936Y005695D01*
X002936Y005636D02*
X003514Y005636D01*
X003455Y005578D02*
X002936Y005578D01*
X002936Y005519D02*
X003397Y005519D01*
X003338Y005461D02*
X002936Y005461D01*
X002936Y005402D02*
X003280Y005402D01*
X003221Y005344D02*
X002936Y005344D01*
X002936Y005285D02*
X003163Y005285D01*
X003104Y005227D02*
X002897Y005227D01*
X002881Y005168D02*
X003090Y005168D01*
X003090Y005110D02*
X002936Y005110D01*
X002936Y005051D02*
X003090Y005051D01*
X003370Y005051D02*
X003524Y005051D01*
X003524Y004993D02*
X003424Y004993D01*
X003465Y004934D02*
X003524Y004934D01*
X003524Y004876D02*
X003465Y004876D01*
X003465Y004817D02*
X003524Y004817D01*
X003483Y004759D02*
X003465Y004759D01*
X003439Y004700D02*
X003408Y004700D01*
X003395Y004642D02*
X003349Y004642D01*
X003351Y004583D02*
X002923Y004583D01*
X002936Y004642D02*
X003111Y004642D01*
X003052Y004700D02*
X002936Y004700D01*
X002880Y004525D02*
X003302Y004525D01*
X003287Y004466D02*
X002949Y004466D01*
X002966Y004408D02*
X003290Y004408D01*
X003290Y004349D02*
X002966Y004349D01*
X002966Y004291D02*
X003290Y004291D01*
X003655Y003869D02*
X004453Y003869D01*
X004511Y003928D01*
X004511Y004038D01*
X004570Y004097D01*
X004719Y004246D01*
X004719Y004216D01*
X005213Y004216D01*
X005213Y004532D01*
X004832Y004532D01*
X004799Y004523D01*
X004770Y004507D01*
X004770Y004576D01*
X004807Y004538D01*
X005678Y004538D01*
X005736Y004597D01*
X005736Y004715D01*
X005838Y004715D01*
X005933Y004620D01*
X006127Y004620D01*
X006265Y004758D01*
X006265Y004952D01*
X006170Y005047D01*
X006170Y005297D01*
X006257Y005384D01*
X006324Y005384D01*
X006324Y005266D01*
X006382Y005208D01*
X007143Y005208D01*
X007081Y005171D01*
X006382Y005171D01*
X006324Y005113D01*
X006324Y004597D01*
X006382Y004538D01*
X007253Y004538D01*
X007311Y004597D01*
X007311Y004982D01*
X007368Y005015D01*
X007388Y005015D01*
X007416Y005043D01*
X007451Y005063D01*
X007456Y005083D01*
X007460Y005087D01*
X007460Y005061D01*
X007532Y004889D01*
X007664Y004756D01*
X007837Y004685D01*
X008023Y004685D01*
X008196Y004756D01*
X008328Y004889D01*
X008342Y004922D01*
X008342Y004388D01*
X008328Y004421D01*
X008196Y004553D01*
X008023Y004625D01*
X007837Y004625D01*
X007664Y004553D01*
X007532Y004421D01*
X007460Y004248D01*
X007460Y004061D01*
X007532Y003889D01*
X007664Y003756D01*
X007837Y003685D01*
X008023Y003685D01*
X008196Y003756D01*
X008328Y003889D01*
X008342Y003922D01*
X008342Y003535D01*
X006365Y003535D01*
X006699Y003869D01*
X007253Y003869D01*
X007311Y003928D01*
X007311Y004444D01*
X007253Y004502D01*
X006382Y004502D01*
X006324Y004444D01*
X006324Y003928D01*
X006343Y003909D01*
X006229Y003795D01*
X003705Y003795D01*
X003655Y003869D01*
X003686Y003823D02*
X006257Y003823D01*
X006315Y003881D02*
X005732Y003881D01*
X005740Y003889D02*
X005757Y003919D01*
X005766Y003952D01*
X005766Y004156D01*
X005273Y004156D01*
X005273Y004216D01*
X005213Y004216D01*
X005213Y004156D01*
X005273Y004156D01*
X005273Y003839D01*
X005653Y003839D01*
X005686Y003848D01*
X005716Y003865D01*
X005740Y003889D01*
X005763Y003940D02*
X006324Y003940D01*
X006324Y003998D02*
X005766Y003998D01*
X005766Y004057D02*
X006324Y004057D01*
X006324Y004115D02*
X005766Y004115D01*
X005766Y004216D02*
X005766Y004419D01*
X005757Y004452D01*
X005740Y004482D01*
X005716Y004506D01*
X005686Y004523D01*
X005653Y004532D01*
X005273Y004532D01*
X005273Y004216D01*
X005766Y004216D01*
X005766Y004232D02*
X006324Y004232D01*
X006324Y004174D02*
X005273Y004174D01*
X005273Y004232D02*
X005213Y004232D01*
X005213Y004174D02*
X004647Y004174D01*
X004719Y004156D02*
X004719Y003952D01*
X004728Y003919D01*
X004745Y003889D01*
X004769Y003865D01*
X004799Y003848D01*
X004832Y003839D01*
X005213Y003839D01*
X005213Y004156D01*
X004719Y004156D01*
X004719Y004115D02*
X004588Y004115D01*
X004530Y004057D02*
X004719Y004057D01*
X004719Y003998D02*
X004511Y003998D01*
X004511Y003940D02*
X004722Y003940D01*
X004753Y003881D02*
X004465Y003881D01*
X004705Y004232D02*
X004719Y004232D01*
X004770Y004525D02*
X004805Y004525D01*
X004490Y005168D02*
X004456Y005168D01*
X004472Y005227D02*
X004490Y005227D01*
X005213Y004525D02*
X005273Y004525D01*
X005273Y004466D02*
X005213Y004466D01*
X005213Y004408D02*
X005273Y004408D01*
X005273Y004349D02*
X005213Y004349D01*
X005213Y004291D02*
X005273Y004291D01*
X005273Y004115D02*
X005213Y004115D01*
X005213Y004057D02*
X005273Y004057D01*
X005273Y003998D02*
X005213Y003998D01*
X005213Y003940D02*
X005273Y003940D01*
X005273Y003881D02*
X005213Y003881D01*
X005680Y004525D02*
X007635Y004525D01*
X007577Y004466D02*
X007288Y004466D01*
X007311Y004408D02*
X007526Y004408D01*
X007502Y004349D02*
X007311Y004349D01*
X007311Y004291D02*
X007478Y004291D01*
X007460Y004232D02*
X007311Y004232D01*
X007311Y004174D02*
X007460Y004174D01*
X007460Y004115D02*
X007311Y004115D01*
X007311Y004057D02*
X007462Y004057D01*
X007486Y003998D02*
X007311Y003998D01*
X007311Y003940D02*
X007510Y003940D01*
X007539Y003881D02*
X007265Y003881D01*
X007597Y003823D02*
X006653Y003823D01*
X006594Y003764D02*
X007656Y003764D01*
X007786Y003706D02*
X006536Y003706D01*
X006477Y003647D02*
X008342Y003647D01*
X008342Y003589D02*
X006419Y003589D01*
X006324Y004291D02*
X005766Y004291D01*
X005766Y004349D02*
X006324Y004349D01*
X006324Y004408D02*
X005766Y004408D01*
X005749Y004466D02*
X006347Y004466D01*
X006337Y004583D02*
X005723Y004583D01*
X005736Y004642D02*
X005911Y004642D01*
X005852Y004700D02*
X005736Y004700D01*
X006149Y004642D02*
X006324Y004642D01*
X006324Y004700D02*
X006208Y004700D01*
X006265Y004759D02*
X006324Y004759D01*
X006324Y004817D02*
X006265Y004817D01*
X006265Y004876D02*
X006324Y004876D01*
X006324Y004934D02*
X006265Y004934D01*
X006224Y004993D02*
X006324Y004993D01*
X006324Y005051D02*
X006170Y005051D01*
X006170Y005110D02*
X006324Y005110D01*
X006379Y005168D02*
X006170Y005168D01*
X006170Y005227D02*
X006363Y005227D01*
X006324Y005285D02*
X006170Y005285D01*
X006217Y005344D02*
X006324Y005344D01*
X007330Y004993D02*
X007488Y004993D01*
X007464Y005051D02*
X007430Y005051D01*
X007513Y004934D02*
X007311Y004934D01*
X007311Y004876D02*
X007544Y004876D01*
X007603Y004817D02*
X007311Y004817D01*
X007311Y004759D02*
X007661Y004759D01*
X007799Y004700D02*
X007311Y004700D01*
X007311Y004642D02*
X008342Y004642D01*
X008342Y004700D02*
X008061Y004700D01*
X008124Y004583D02*
X008342Y004583D01*
X008342Y004525D02*
X008225Y004525D01*
X008283Y004466D02*
X008342Y004466D01*
X008334Y004408D02*
X008342Y004408D01*
X008342Y004759D02*
X008199Y004759D01*
X008257Y004817D02*
X008342Y004817D01*
X008342Y004876D02*
X008316Y004876D01*
X007736Y004583D02*
X007298Y004583D01*
X008074Y003706D02*
X008342Y003706D01*
X008342Y003764D02*
X008204Y003764D01*
X008263Y003823D02*
X008342Y003823D01*
X008342Y003881D02*
X008321Y003881D01*
X008342Y006388D02*
X008328Y006421D01*
X008196Y006553D01*
X008023Y006625D01*
X007837Y006625D01*
X007664Y006553D01*
X007597Y006486D01*
X007470Y006613D01*
X007470Y006691D01*
X007480Y006681D01*
X007510Y006664D01*
X007543Y006655D01*
X007900Y006655D01*
X007900Y007125D01*
X007960Y007125D01*
X007960Y006655D01*
X008317Y006655D01*
X008342Y006662D01*
X008342Y006388D01*
X008338Y006397D02*
X008342Y006397D01*
X008342Y006455D02*
X008294Y006455D01*
X008342Y006514D02*
X008236Y006514D01*
X008150Y006572D02*
X008342Y006572D01*
X008342Y006631D02*
X007470Y006631D01*
X007470Y006689D02*
X007472Y006689D01*
X007510Y006572D02*
X007710Y006572D01*
X007624Y006514D02*
X007569Y006514D01*
X007900Y006689D02*
X007960Y006689D01*
X007960Y006748D02*
X007900Y006748D01*
X007900Y006806D02*
X007960Y006806D01*
X007960Y006865D02*
X007900Y006865D01*
X007900Y006923D02*
X007960Y006923D01*
X007960Y006982D02*
X007900Y006982D01*
X007900Y007040D02*
X007960Y007040D01*
X007960Y007099D02*
X007900Y007099D01*
X007900Y007185D02*
X007900Y007655D01*
X007628Y007655D01*
X007688Y007715D01*
X008188Y007715D01*
X008288Y007815D01*
X008342Y007869D01*
X008342Y007648D01*
X008317Y007655D01*
X007960Y007655D01*
X007960Y007185D01*
X007900Y007185D01*
X007900Y007216D02*
X007960Y007216D01*
X007960Y007274D02*
X007900Y007274D01*
X007900Y007333D02*
X007960Y007333D01*
X007960Y007391D02*
X007900Y007391D01*
X007900Y007450D02*
X007960Y007450D01*
X007960Y007508D02*
X007900Y007508D01*
X007900Y007567D02*
X007960Y007567D01*
X007960Y007625D02*
X007900Y007625D01*
X007657Y007684D02*
X008342Y007684D01*
X008342Y007742D02*
X008216Y007742D01*
X008274Y007801D02*
X008342Y007801D01*
X008333Y007859D02*
X008342Y007859D01*
X008090Y008386D02*
X007341Y008386D01*
X007341Y008444D02*
X008090Y008444D01*
X007431Y009322D02*
X007385Y009322D01*
X007053Y009322D02*
X007050Y009322D01*
X007022Y008737D02*
X007038Y008737D01*
X006847Y008620D02*
X006787Y008620D01*
X006787Y008561D02*
X006847Y008561D01*
X006847Y008503D02*
X006787Y008503D01*
X006787Y008444D02*
X006847Y008444D01*
X006847Y008386D02*
X006787Y008386D01*
X006787Y008210D02*
X006847Y008210D01*
X006847Y008152D02*
X006787Y008152D01*
X006787Y008093D02*
X006847Y008093D01*
X006847Y008035D02*
X006787Y008035D01*
X006324Y007859D02*
X006158Y007859D01*
X006216Y007801D02*
X006324Y007801D01*
X005752Y007274D02*
X005705Y007274D01*
X003563Y005227D02*
X003500Y005227D01*
X003441Y005168D02*
X003579Y005168D01*
X003524Y005110D02*
X003383Y005110D01*
X002473Y004525D02*
X002413Y004525D01*
X002413Y004466D02*
X002473Y004466D01*
X002473Y004408D02*
X002413Y004408D01*
X002413Y004349D02*
X002473Y004349D01*
X002473Y004291D02*
X002413Y004291D01*
X002413Y004156D02*
X001919Y004156D01*
X001919Y003952D01*
X001928Y003919D01*
X001945Y003889D01*
X001969Y003865D01*
X001999Y003848D01*
X002032Y003839D01*
X002413Y003839D01*
X002413Y004156D01*
X002413Y004115D02*
X002473Y004115D01*
X002473Y004057D02*
X002413Y004057D01*
X002413Y003998D02*
X002473Y003998D01*
X002473Y003940D02*
X002413Y003940D01*
X002413Y003881D02*
X002473Y003881D01*
X001953Y003881D02*
X001254Y003881D01*
X001303Y003940D02*
X001413Y003940D01*
X001354Y003998D02*
X001335Y003998D01*
X001647Y003940D02*
X001922Y003940D01*
X001919Y003998D02*
X001706Y003998D01*
X001764Y004057D02*
X001919Y004057D01*
X001919Y004115D02*
X001765Y004115D01*
X001392Y004349D02*
X001324Y004349D01*
X001335Y005578D02*
X001375Y005578D01*
X001372Y005929D02*
X001335Y005929D01*
X001286Y005987D02*
X001430Y005987D01*
D27*
X001530Y005755D03*
X001530Y004155D03*
X003130Y004155D03*
X003230Y004855D03*
X003230Y007655D03*
X002030Y008755D03*
X001630Y009655D03*
X000630Y010555D03*
X002930Y010355D03*
X003630Y012055D03*
X005130Y009355D03*
X006030Y008155D03*
X006030Y007655D03*
X006230Y006355D03*
X006030Y004855D03*
X006030Y004155D03*
X007630Y008755D03*
X007630Y009455D03*
X006530Y010155D03*
D28*
X006462Y010461D02*
X006462Y010658D01*
X006979Y010658D01*
X007230Y011009D01*
X007276Y011055D01*
X007830Y011055D01*
X008230Y010655D01*
X008230Y007955D01*
X008130Y007855D01*
X007630Y007855D01*
X007330Y007555D01*
X007330Y006555D01*
X007730Y006155D01*
X007930Y006155D01*
X007330Y006044D02*
X007119Y006255D01*
X007330Y006044D02*
X007330Y005155D01*
X006817Y004855D01*
X006817Y005524D02*
X006199Y005524D01*
X006030Y005355D01*
X006030Y004855D01*
X005243Y004855D01*
X004630Y004355D02*
X004630Y005755D01*
X003830Y006555D01*
X003530Y006555D01*
X003330Y006755D01*
X003330Y007255D01*
X003730Y007655D01*
X004017Y007655D01*
X004017Y008324D02*
X003499Y008324D01*
X003230Y008055D01*
X003230Y007655D01*
X002443Y007655D01*
X002030Y008755D02*
X001641Y008755D01*
X001630Y008766D01*
X001630Y009144D02*
X002426Y009144D01*
X002530Y009040D01*
X002634Y009566D02*
X002530Y009670D01*
X002515Y009655D01*
X001630Y009655D01*
X001230Y009255D01*
X001230Y006355D01*
X001030Y006155D01*
X000930Y006155D01*
X000741Y005966D01*
X000741Y005755D01*
X000741Y004155D01*
X000530Y003855D02*
X001030Y003855D01*
X001130Y003955D01*
X001130Y004144D01*
X001119Y004155D01*
X001530Y004155D01*
X002443Y004855D02*
X003230Y004855D01*
X003230Y005155D01*
X003599Y005524D01*
X004017Y005524D01*
X004017Y004855D02*
X003730Y004855D01*
X003430Y004455D01*
X003430Y003955D01*
X003630Y003655D01*
X006287Y003655D01*
X006817Y004186D01*
X006741Y006255D02*
X006641Y006355D01*
X006230Y006355D01*
X005661Y006986D02*
X006030Y007355D01*
X006030Y007655D01*
X006817Y007655D01*
X006030Y008155D02*
X006030Y008355D01*
X005630Y008755D01*
X002030Y008755D01*
X002634Y009566D02*
X003130Y009140D01*
X003245Y009281D01*
X003697Y009581D01*
X004504Y009581D01*
X004930Y008955D01*
X006841Y008955D01*
X007219Y008955D02*
X007430Y008955D01*
X007630Y008755D01*
X007630Y009455D02*
X007530Y009555D01*
X007219Y009555D01*
X007230Y011009D02*
X006942Y011321D01*
X006942Y012002D01*
X005215Y009855D02*
X005141Y009644D01*
X005130Y009644D01*
X005130Y009355D01*
X005215Y009855D02*
X004830Y009955D01*
X004798Y009987D01*
X004798Y010461D01*
X004798Y010658D01*
X002464Y010658D01*
X002424Y010898D01*
X003697Y009581D02*
X003723Y009555D01*
X004241Y010855D02*
X004030Y010966D01*
X004241Y010855D02*
X004798Y010855D01*
X004798Y011249D02*
X004736Y011249D01*
X004430Y011555D01*
X004280Y011705D01*
X004030Y011955D01*
X004030Y012466D01*
X004563Y009955D02*
X004830Y009955D01*
X004830Y007655D02*
X005243Y007655D01*
X004830Y007655D02*
X004630Y007455D01*
X004630Y007155D01*
X004461Y006986D01*
X004017Y006986D01*
X005243Y006986D02*
X005661Y006986D01*
X004630Y004355D02*
X004430Y004155D01*
X004048Y004155D01*
X004017Y004186D01*
X001530Y005755D02*
X001119Y005755D01*
X000630Y006155D02*
X000430Y005955D01*
X000430Y003955D01*
X000530Y003855D01*
X000630Y006155D02*
X000630Y010555D01*
M02*
