G75*
%MOIN*%
%OFA0B0*%
%FSLAX24Y24*%
%IPPOS*%
%LPD*%
%AMOC8*
5,1,8,0,0,1.08239X$1,22.5*
%
%ADD10R,0.0394X0.0236*%
%ADD11R,0.0157X0.0531*%
%ADD12R,0.0394X0.1811*%
%ADD13R,0.0630X0.1339*%
%ADD14R,0.0571X0.0453*%
%ADD15R,0.0394X0.0098*%
%ADD16R,0.0283X0.0232*%
%ADD17R,0.0232X0.0283*%
%ADD18R,0.0315X0.0315*%
%ADD19R,0.0787X0.0433*%
%ADD20R,0.0374X0.0394*%
%ADD21R,0.0394X0.0374*%
D10*
X003697Y009581D03*
X003697Y010329D03*
X004563Y009955D03*
D11*
X005918Y012002D03*
X006174Y012002D03*
X006430Y012002D03*
X006686Y012002D03*
X006942Y012002D03*
D12*
X002424Y010898D03*
X001636Y010898D03*
D13*
X000691Y012945D03*
X003369Y012945D03*
D14*
X007230Y011009D03*
X007230Y010301D03*
D15*
X006462Y010461D03*
X006462Y010658D03*
X006462Y010855D03*
X006462Y011052D03*
X006462Y011249D03*
X004798Y011249D03*
X004798Y011052D03*
X004798Y010855D03*
X004798Y010658D03*
X004798Y010461D03*
D16*
X004030Y010966D03*
X004030Y011344D03*
X004030Y012466D03*
X004030Y012844D03*
X001630Y009144D03*
X001630Y008766D03*
D17*
X000741Y004155D03*
X001119Y004155D03*
X001119Y005755D03*
X000741Y005755D03*
X006741Y006255D03*
X007119Y006255D03*
X007219Y008955D03*
X006841Y008955D03*
X006841Y009555D03*
X007219Y009555D03*
D18*
X002530Y009670D03*
X002530Y009040D03*
D19*
X002443Y008324D03*
X002443Y007655D03*
X002443Y006986D03*
X002443Y005524D03*
X002443Y004855D03*
X002443Y004186D03*
X004017Y004186D03*
X004017Y004855D03*
X004017Y005524D03*
X004017Y006986D03*
X004017Y007655D03*
X004017Y008324D03*
X005243Y008324D03*
X005243Y007655D03*
X005243Y006986D03*
X005243Y005524D03*
X005243Y004855D03*
X005243Y004186D03*
X006817Y004186D03*
X006817Y004855D03*
X006817Y005524D03*
X006817Y006986D03*
X006817Y007655D03*
X006817Y008324D03*
D20*
X005845Y009855D03*
X005215Y009855D03*
D21*
X003130Y009770D03*
X003130Y009140D03*
M02*
