G75*
%MOIN*%
%OFA0B0*%
%FSLAX24Y24*%
%IPPOS*%
%LPD*%
%AMOC8*
5,1,8,0,0,1.08239X$1,22.5*
%
%ADD10C,0.0050*%
%ADD11C,0.0060*%
%ADD12C,0.0240*%
%ADD13C,0.0080*%
D10*
X000741Y000864D02*
X007040Y000864D01*
X007040Y003148D01*
X007040Y010313D01*
X000741Y010313D01*
X000741Y003148D01*
X007040Y003148D01*
X004293Y010699D02*
X004042Y010699D01*
X004126Y010699D02*
X004126Y010824D01*
X004168Y010866D01*
X004251Y010866D01*
X004293Y010824D01*
X004293Y010699D01*
X004126Y010782D02*
X004042Y010866D01*
X004042Y010975D02*
X004042Y011142D01*
X004084Y011251D02*
X004042Y011293D01*
X004042Y011376D01*
X004084Y011418D01*
X004126Y011418D01*
X004168Y011376D01*
X004168Y011293D01*
X004209Y011251D01*
X004251Y011251D01*
X004293Y011293D01*
X004293Y011376D01*
X004251Y011418D01*
X004293Y011527D02*
X004042Y011527D01*
X004042Y011694D01*
X004168Y011611D02*
X004168Y011527D01*
X004293Y011527D02*
X004293Y011694D01*
X004293Y011804D02*
X004293Y011971D01*
X004293Y011887D02*
X004042Y011887D01*
X004084Y012399D02*
X004042Y012440D01*
X004042Y012524D01*
X004084Y012566D01*
X004168Y012566D01*
X004168Y012482D01*
X004251Y012399D02*
X004084Y012399D01*
X004251Y012399D02*
X004293Y012440D01*
X004293Y012524D01*
X004251Y012566D01*
X004293Y012675D02*
X004293Y012800D01*
X004251Y012842D01*
X004168Y012842D01*
X004126Y012800D01*
X004126Y012675D01*
X004042Y012675D02*
X004293Y012675D01*
X004293Y012951D02*
X004293Y013035D01*
X004293Y012993D02*
X004042Y012993D01*
X004042Y012951D02*
X004042Y013035D01*
X004084Y013135D02*
X004042Y013177D01*
X004042Y013261D01*
X004084Y013302D01*
X004251Y013302D01*
X004293Y013261D01*
X004293Y013177D01*
X004251Y013135D01*
X004084Y013135D01*
X004084Y013412D02*
X004251Y013578D01*
X004084Y013578D01*
X004042Y013537D01*
X004042Y013453D01*
X004084Y013412D01*
X004251Y013412D01*
X004293Y013453D01*
X004293Y013537D01*
X004251Y013578D01*
X004293Y011142D02*
X004293Y010975D01*
X004042Y010975D01*
X004168Y010975D02*
X004168Y011058D01*
X004854Y011047D02*
X004854Y011088D01*
X004895Y011130D01*
X004979Y011130D01*
X005020Y011088D01*
X005130Y011047D02*
X005213Y010880D01*
X005297Y011047D01*
X005020Y010880D02*
X004854Y011047D01*
X004854Y010880D02*
X005020Y010880D01*
X005682Y010880D02*
X005849Y011047D01*
X005849Y010880D02*
X005682Y011047D01*
X005959Y011005D02*
X006000Y011047D01*
X006084Y011047D01*
X006125Y011005D01*
X006125Y010922D01*
X006084Y010880D01*
X006000Y010880D01*
X005959Y010922D01*
X005959Y011005D01*
X006235Y011005D02*
X006276Y011047D01*
X006402Y011047D01*
X006402Y011130D02*
X006402Y010880D01*
X006276Y010880D01*
X006235Y010922D01*
X006235Y011005D01*
X006511Y011005D02*
X006511Y010880D01*
X006511Y011005D02*
X006553Y011047D01*
X006678Y011047D01*
X006678Y010880D01*
X006787Y010963D02*
X006954Y010963D01*
X006954Y010922D02*
X006954Y011005D01*
X006912Y011047D01*
X006829Y011047D01*
X006787Y011005D01*
X006787Y010963D01*
X006829Y010880D02*
X006912Y010880D01*
X006954Y010922D01*
X007059Y010880D02*
X007184Y010963D01*
X007059Y011047D01*
X007184Y011130D02*
X007184Y010880D01*
X007294Y010880D02*
X007294Y011005D01*
X007335Y011047D01*
X007460Y011047D01*
X007460Y010880D01*
X007561Y010880D02*
X007645Y010880D01*
X007603Y010880D02*
X007603Y011047D01*
X007645Y011047D01*
X007603Y011130D02*
X007603Y011172D01*
X007787Y011130D02*
X007787Y010880D01*
X007829Y010880D02*
X007745Y010880D01*
X007938Y010922D02*
X007980Y010880D01*
X008105Y010880D01*
X008105Y011130D01*
X007980Y011130D01*
X007938Y011088D01*
X007938Y011047D01*
X007980Y011005D01*
X008105Y011005D01*
X007980Y011005D02*
X007938Y010963D01*
X007938Y010922D01*
X007829Y011130D02*
X007787Y011130D01*
X001426Y000485D02*
X001426Y000277D01*
X001384Y000235D01*
X001301Y000235D01*
X001259Y000277D01*
X001259Y000485D01*
X001150Y000402D02*
X001066Y000485D01*
X001066Y000235D01*
X000983Y000235D02*
X001150Y000235D01*
X000741Y000864D02*
X000741Y003148D01*
D11*
X001109Y003485D02*
X001536Y003485D01*
X001109Y003912D01*
X001109Y004019D01*
X001216Y004125D01*
X001429Y004125D01*
X001536Y004019D01*
X001754Y003912D02*
X001967Y003485D01*
X002181Y003912D01*
X002398Y003805D02*
X002825Y003805D01*
X003043Y003805D02*
X003043Y003485D01*
X003043Y003805D02*
X003150Y003912D01*
X003470Y003912D01*
X003470Y003485D01*
X003687Y003698D02*
X003687Y003805D01*
X003794Y003912D01*
X004008Y003912D01*
X004114Y003805D01*
X004114Y003592D01*
X004008Y003485D01*
X003794Y003485D01*
X003687Y003698D02*
X004114Y003698D01*
X004331Y003485D02*
X004652Y003698D01*
X004331Y003912D01*
X004652Y004125D02*
X004652Y003485D01*
X004869Y003485D02*
X004869Y003805D01*
X004976Y003912D01*
X005296Y003912D01*
X005296Y003485D01*
X005512Y003485D02*
X005726Y003485D01*
X005619Y003485D02*
X005619Y003912D01*
X005726Y003912D01*
X005619Y004125D02*
X005619Y004232D01*
X006049Y004125D02*
X006049Y003485D01*
X006155Y003485D02*
X005942Y003485D01*
X006373Y003592D02*
X006373Y003805D01*
X006480Y003912D01*
X006800Y003912D01*
X006800Y004125D02*
X006800Y003485D01*
X006480Y003485D01*
X006373Y003592D01*
X006155Y004125D02*
X006049Y004125D01*
D12*
X004560Y003345D02*
X002001Y003345D01*
X002001Y003108D01*
X002001Y003069D02*
X002001Y001140D01*
X002355Y001140D01*
X002355Y002597D01*
X002749Y002597D01*
X002749Y001179D01*
X003221Y001179D01*
X003221Y002597D01*
X003694Y002597D01*
X003694Y001179D01*
X004127Y001179D01*
X004127Y002557D01*
X004560Y002557D01*
X004560Y001179D01*
X006135Y001179D01*
D13*
X003213Y010566D02*
X001047Y010566D01*
X001030Y010567D01*
X001013Y010572D01*
X000998Y010579D01*
X000984Y010589D01*
X000972Y010601D01*
X000962Y010615D01*
X000955Y010630D01*
X000950Y010647D01*
X000949Y010664D01*
X000949Y010822D01*
X000949Y011688D02*
X000949Y011845D01*
X000950Y011862D01*
X000955Y011879D01*
X000962Y011894D01*
X000972Y011908D01*
X000984Y011920D01*
X000998Y011930D01*
X001013Y011937D01*
X001030Y011942D01*
X001047Y011943D01*
X001047Y011944D02*
X003213Y011944D01*
X003213Y011943D02*
X003230Y011942D01*
X003247Y011937D01*
X003262Y011930D01*
X003276Y011920D01*
X003288Y011908D01*
X003298Y011894D01*
X003305Y011879D01*
X003310Y011862D01*
X003311Y011845D01*
X003311Y011688D01*
X003213Y012166D02*
X001047Y012166D01*
X001030Y012167D01*
X001013Y012172D01*
X000998Y012179D01*
X000984Y012189D01*
X000972Y012201D01*
X000962Y012215D01*
X000955Y012230D01*
X000950Y012247D01*
X000949Y012264D01*
X000949Y012422D01*
X001539Y012560D02*
X001539Y013150D01*
X002721Y013150D01*
X002721Y012560D01*
X001539Y012560D01*
X000949Y013288D02*
X000949Y013445D01*
X000950Y013462D01*
X000955Y013479D01*
X000962Y013494D01*
X000972Y013508D01*
X000984Y013520D01*
X000998Y013530D01*
X001013Y013537D01*
X001030Y013542D01*
X001047Y013543D01*
X001047Y013544D02*
X003213Y013544D01*
X003213Y013543D02*
X003230Y013542D01*
X003247Y013537D01*
X003262Y013530D01*
X003276Y013520D01*
X003288Y013508D01*
X003298Y013494D01*
X003305Y013479D01*
X003310Y013462D01*
X003311Y013445D01*
X003311Y013288D01*
X003311Y012422D02*
X003311Y012264D01*
X003310Y012247D01*
X003305Y012230D01*
X003298Y012215D01*
X003288Y012201D01*
X003276Y012189D01*
X003262Y012179D01*
X003247Y012172D01*
X003230Y012167D01*
X003213Y012166D01*
X002721Y011550D02*
X002721Y010960D01*
X001539Y010960D01*
X001539Y011550D01*
X002721Y011550D01*
X003311Y010822D02*
X003311Y010664D01*
X003310Y010647D01*
X003305Y010630D01*
X003298Y010615D01*
X003288Y010601D01*
X003276Y010589D01*
X003262Y010579D01*
X003247Y010572D01*
X003230Y010567D01*
X003213Y010566D01*
M02*
