%
M48
M72
T01C0.0130
T02C0.0330
T03C0.0400
T04C0.0600
%
T01
X1530Y4155
X1530Y5755
X3130Y4155
X3230Y4855
X3230Y7655
X2030Y8755
X1630Y9655
X630Y10555
X2930Y10355
X3630Y12055
X5130Y9355
X6030Y8155
X6030Y7655
X6230Y6355
X6030Y4855
X6030Y4155
X7630Y8755
X7630Y9455
X6530Y10155
T02
X7385Y11874
X5475Y11874
T03
X7930Y7155
X7930Y6155
X7930Y5155
X7930Y4155
T04
X7812Y13055
X5048Y13055
M30
